<?xml version="1.0" encoding="UTF-8"?>
<svg width="1200pt" height="1200pt" version="1.1" viewBox="0 0 1200 1200" xmlns="http://www.w3.org/2000/svg">
 <path d="m1044.1 752.04c-170.16 77.039-373.2 40.441-504.96-91.32-131.76-131.76-168.36-334.8-91.078-504.72 4.3203-9.7188 2.2812-21.121-5.3984-28.441-7.3203-7.6797-18.84-9.7188-28.441-5.3984-55.68 25.199-105.36 59.52-147.24 101.76-94.805 94.68-147 220.68-147 354.72 0 133.8 52.199 259.68 147 354.6 94.68 94.559 220.56 146.76 354.6 146.76 133.8 0 259.68-52.199 354.6-146.76 42-42.238 76.32-91.801 101.52-147.6 4.3203-9.7188 2.2812-20.879-5.0391-28.441-7.6836-7.4336-18.844-9.7148-28.562-5.1562z" fill="#012653"/>
</svg>
