<?xml version="1.0" encoding="UTF-8"?>
<svg width="1200pt" height="1200pt" version="1.1" viewBox="0 0 1200 1200" xmlns="http://www.w3.org/2000/svg">
 <path d="m600.05 840.66c132.71 0 240.66-107.95 240.66-240.66s-107.95-240.66-240.66-240.66-240.66 107.95-240.66 240.66 107.95 240.66 240.66 240.66z" fill="#f4de3d"/>
 <path d="m169.13 548.76c-51.047 23.391-100.22 36.75-133.13 43.875-7.9688 1.7344-8.0156 12.891 0 14.625 32.859 7.125 81.984 20.484 133.08 43.922 45.938 21.094 61.359 78.703 32.109 119.91-32.578 45.844-68.391 81.891-93.281 104.53-6.0469 5.5312-0.46875 15.141 7.3125 12.656 31.781-10.172 80.344-23.016 135.74-28.359 51.188-4.9688 94.266 38.203 89.156 89.344-5.5312 55.266-18.328 103.78-28.453 135.52-2.4844 7.7812 7.1719 13.359 12.656 7.3125 22.641-24.891 58.641-60.656 104.48-93.281 41.203-29.297 98.859-13.875 119.95 32.062 23.438 51.141 36.75 100.22 43.922 133.13 1.7344 7.9688 12.891 7.9688 14.625 0 7.1719-32.859 20.484-81.938 43.875-133.08 21.047-45.984 78.703-61.453 119.95-32.156 45.844 32.578 81.891 68.438 104.53 93.328 5.4844 6.0469 15.141 0.46875 12.656-7.3125-10.172-31.734-22.969-80.297-28.406-135.66-5.0156-51.141 38.062-94.219 89.203-89.203 55.312 5.4375 103.92 18.281 135.66 28.406 7.7812 2.4844 13.359-7.1719 7.3125-12.656-24.891-22.641-60.703-58.734-93.281-104.53-29.297-41.203-13.875-98.859 32.109-119.91 51.188-23.438 100.27-36.75 133.13-43.922 7.9688-1.7344 7.9688-12.891 0-14.625-32.859-7.125-81.938-20.484-133.08-43.875-45.984-21.047-61.453-78.703-32.156-119.95 32.578-45.844 68.438-81.891 93.328-104.58 6.0469-5.4844 0.46875-15.141-7.3125-12.656-31.781 10.172-80.344 23.016-135.79 28.406-51.141 5.0156-94.219-38.109-89.109-89.25 5.4844-55.312 18.328-103.88 28.5-135.66 2.4844-7.7812-7.1719-13.359-12.656-7.3125-22.641 24.891-58.688 60.703-104.53 93.281-41.203 29.297-98.859 13.875-119.95-32.109-23.438-51.141-36.75-100.22-43.922-133.08-1.7344-7.9688-12.891-7.9688-14.625 0-7.1719 32.859-20.484 81.891-43.828 133.08-21 46.078-78.75 61.547-120 32.203-45.844-32.625-81.938-68.484-104.53-93.375-5.5312-6.0469-15.188-0.46875-12.703 7.3125 10.125 31.734 22.969 80.203 28.453 135.52 5.1094 51.188-37.969 94.359-89.203 89.344-55.359-5.4375-103.97-18.281-135.74-28.406-7.7812-2.4844-13.359 7.1719-7.3125 12.656 24.891 22.594 60.703 58.688 93.281 104.48 29.297 41.203 13.922 98.906-32.062 119.95zm430.92-261.71c172.6 0 312.94 140.34 312.94 312.94 0 172.6-140.34 312.94-312.94 312.94-172.6 0-312.94-140.34-312.94-312.94 0-172.6 140.34-312.94 312.94-312.94z" fill="#f4de3d"/>
</svg>
