<?xml version="1.0" encoding="UTF-8"?>
<svg width="1200pt" height="1200pt" version="1.1" viewBox="0 0 1200 1200" xmlns="http://www.w3.org/2000/svg">
 <path d="m272.39 415.22c9.6094-3.6094 16.781 1.2188 24 7.2188 1.2188 1.2188 3.6094 2.3906 4.7812 2.3906 3.6094-2.3906 2.3906-7.2188 4.7812-10.781 1.2188-1.2188 2.3906-2.3906 3.6094-1.2188 1.2188 0 3.6094 1.2188 3.6094 2.3906 1.2188 3.6094 2.3906 8.3906 3.6094 13.219 12-1.2188 12-1.2188 16.781 2.3906 8.3906 7.2188 18 13.219 28.781 16.781 6-4.7812 12-10.781 19.219-10.781 9.6094 0 14.391-9.6094 21.609-9.6094 8.3906 0 14.391-6 20.391-7.2188 6-2.3906 10.781-6 12-12 2.3906-9.6094 6-18 14.391-25.219 3.6094-3.6094 6-10.781 8.3906-15.609 2.3906-3.6094 3.6094-8.3906 6-12 3.6094-4.7812 6-8.3906 14.391-7.2188 8.3906 1.2188 12-4.7812 12-13.219 0-6-3.6094-12 1.2188-18 3.6094-2.3906 9.6094-1.2188 13.219-6 3.6094-3.6094 2.3906-9.6094-1.2188-12-4.7812-2.3906-9.6094-2.3906-12 1.2188-3.6094 3.6094-6 8.3906-6 14.391 0 3.6094 0 7.2188-1.2188 10.781-1.2188 2.3906-3.6094 4.7812-7.2188 4.7812s-6-1.2188-7.2188-3.6094c-1.0781-2.2969-2.2969-4.6875-2.2969-5.9062-1.2188-3.6094-2.3906-7.2188-3.6094-10.781-1.2188-4.7812-9.6094 0-9.6094-6 2.3906-2.3906 7.2188-6 6-8.3906-2.3906-14.391-3.6094-30-14.391-42-3.6094-3.6094-7.2188-6-9.6094-9.6094-2.3906-2.3906 1.2188-9.6094-4.7812-10.781-2.3906 4.7812-3.6094 12-12 10.781-4.7812 0-9.6094 2.3906-14.391 2.3906-2.3906-4.7812-3.6094-8.3906-6-12-1.2188-2.3906-4.7812-3.6094-8.3906-2.3906-2.3906 1.2188-4.7812 1.2188-6 2.3906-15.609 12-32.391 19.219-51.609 19.219-2.3906 0-6 1.2188-8.3906 3.6094-6 4.7812-12 10.781-18 15.609 0 7.2188 6 9.6094 7.2188 14.391-14.391 7.2188-25.219 18-37.219 27.609-6 4.7812-9.6094 12-9.6094 20.391 0 0 0 1.2188-1.2188 1.2188h1.2188c1.2188 1.2188 3.6094 3.6094 3.6094 4.7812-1.2188 9.6094 0 16.781 3.6094 25.219 3.6094 9.6094 4.7812 20.391-7.2188 27.609-4.7812 3.6094-4.7812 10.781-3.6094 16.781 3.6094 2.3438 4.7812 5.9531 8.3906 4.7812zm128.39-30c1.2188 0 2.3906 1.2188 3.6094 2.3906 1.2188 4.7812-3.6094 10.781-8.3906 10.781l-1.2188-1.2188c-2.3906-4.7812 1.2188-10.781 6-11.953z" fill="#012f69"/>
 <path d="m792 357.61c3.6094 1.2188 6 3.6094 7.2188 8.3906 1.2188 6 4.7812 10.781 7.2188 15.609 10.781 18 27.609 32.391 44.391 44.391 9.6094 7.2188 20.391 13.219 32.391 15.609 16.781 3.6094 32.391 2.3906 46.781-8.3906 25.219-18 33.609-52.781 33.609-75.609 0-2.3906 0-4.7812-1.2188-7.2188-8.3906-21.609-13.219-44.391-28.781-63.609-3.6094-3.6094-6-8.3906-8.3906-13.219-7.2188-10.781-15.609-20.391-26.391-26.391-3.6094 0-6 1.2188-8.3906 3.6094-4.7812 6-12 7.2188-18 3.6094-14.391-6-28.781-7.2188-43.219-10.781-2.3906-1.2188-4.7812 0-6 1.2188-4.7812 3.6094-8.3906 6-12 9.6094-4.7812 4.7812-12 7.2188-7.2188 16.781 0 1.2188 0 3.6094-1.2188 3.6094-7.2188 8.3906-2.3906 21.609-8.3906 30-8.3906 10.781 1.2188 20.391-1.2188 30 0 3.6094-1.2188 7.2188-2.3906 10.781-3.5625 7.1719-3.5625 9.6094 1.2188 12zm57.609 22.781c2.3906 0 6 3.6094 6 4.7812 0 4.7812-6 10.781-12 10.781-1.2188-1.2188-2.3906-1.2188-2.3906-2.3906-1.2188-5.9531 3.5625-11.953 8.3906-13.172zm-28.828-22.781c8.3906 1.2188 14.391 6 15.609 12 1.2188 3.6094-1.2188 7.2188-3.6094 9.6094s-6 2.3906-7.2188 0c-2.3906-4.7812-6-10.781-4.7812-16.781-1.1719-2.4375 0-4.8281 0-4.8281z" fill="#012f69"/>
 <path d="m924 877.22c8.3906-13.219 7.2188-28.781 8.3906-44.391 1.2188-8.3906-7.2188-12-10.781-19.219 0-1.2188 0-1.2188-1.2188-2.3906-2.3906-7.2188-6-9.6094-13.219-6-2.3906 1.2188-6 0-8.3906-2.3906-3.6094-3.6094-7.2188-4.7812-12-2.3906-1.2188 1.2188-4.7812 0-6-1.2188-7.2188-7.2188-13.219-6-20.391 1.2188-8.3906 8.3906-20.391 13.219-32.391 15.609-6 1.2188-8.3906 3.6094-10.781 9.6094-2.3906 8.3906-7.2188 16.781-16.781 20.391-4.7812 2.3906-6 6-6 10.781s-1.2188 8.3906-2.3906 13.219c-1.2188 4.7812-8.3906 6-8.3906 13.219 9.6094 13.219 6 30 8.3906 48 7.2188 2.3906 14.391 1.2188 20.391 6 12 10.781 27.609 6 40.781 4.7812 25.219-10.781 49.219-21.609 61.219-49.219 3.5625-6.0469 7.1719-10.828 9.5625-15.609z" fill="#012f69"/>
 <path d="m694.78 1000.8c1.2188-1.2188 3.6094-3.6094 4.7812-3.6094 12-1.2188 20.391-13.219 32.391-13.219 3.6094 0 3.6094-3.6094 1.2188-7.2188-1.2188-2.3906-2.3906-3.6094-4.7812-4.7812 1.2188-1.2188 2.3906-1.2188 4.7812-1.2188 10.781-3.6094 10.781-3.6094 8.3906-15.609v-2.3906c0-2.3906 1.2188-4.7812 4.7812-3.6094 2.3906 1.2188 6 2.3906 7.2188-2.3906 0-1.2188-2.3906-3.6094-3.6094-4.7812-3.6094-2.3906-6-4.7812-4.7812-9.6094 2.3906-8.3906 0-13.219-8.3906-15.609-1.2188-1.2188-3.6094-3.6094-3.6094-4.7812-2.3906-6-7.2188-8.3906-12-12-9.6094-8.3906-22.781-9.6094-33.609-18-3.6094-3.6094-7.2188 0-9.6094 2.3906-3.6094 2.3906-7.2188 1.2188-9.6094-2.3906-1.2188-2.3906-3.6094-4.7812-6-7.2188-14.391 4.7812-28.781 9.6094-40.781 18-4.7812-2.3906-13.219-4.7812-15.609-4.7812 0 1.2188 1.2188 3.6094 1.2188 3.6094 4.7812 6 6 10.781 2.3906 18-9.6094 20.391-6 42 4.7812 60 7.2188 12 18 21.609 33.609 22.781 9.6094 0 20.391 3.6094 31.219 4.7812-2.3906 4.7812-3.6094 8.3906-6 12 9.6094 0.09375 18.047 2.4844 21.609-8.3438zm-39.562-51.562c-1.2188-1.2188-2.3906-2.3906-1.2188-3.6094 0-1.2188 1.2188-2.3906 2.3906-2.3906 1.2188 0 2.3906 1.2188 3.6094 1.2188-2.3906 2.3438-3.6094 3.5625-4.7812 4.7812z" fill="#012f69"/>
 <path d="m748.78 734.39c-4.7812 12-3.6094 22.781 0 34.781 1.2188 2.3906 1.2188 4.7812 0 8.3906-2.3906 9.6094-1.2188 9.6094 4.7812 9.6094 7.2188 0 13.219 1.2188 18 7.2188 2.3906 2.3906 6 3.6094 10.781 3.6094 8.3906-1.2188 15.609 3.6094 24 0 3.6094-1.2188 7.2188 0 10.781 2.3906 7.2188 4.7812 12 0 16.781-4.7812l-1.2188-1.2188s-1.2188-1.2188-2.3906-1.2188c-2.3906-1.2188-3.6094-2.3906-3.6094-4.7812 1.2188-2.3906 2.3906-3.6094 4.7812-3.6094 4.7812 0 8.3906 4.7812 13.219 1.2188 2.3906-2.3906 4.7812-4.7812 7.2188-8.3906 2.3906-3.6094 0-7.2188-2.3906-9.6094-3.6094-3.6094-1.2188-6 2.3906-8.3906 2.3906-1.2188 3.6094-1.2188 6-2.3906 3.6094-2.3906 2.3906-7.2188-1.2188-8.3906-8.3906-3.6094-7.2188-3.6094-7.2188-10.781 0-7.2188 8.3906-4.7812 10.781-9.6094-3.6094-1.2188-6-1.2188-8.3906-2.3906-3.6094-2.3906-2.3906-6-2.3906-9.6094 1.2188-4.7812-1.2188-10.781 1.2188-15.609 2.3906-3.6094 1.2188-7.2188-2.3906-9.6094s-6-7.2188-7.2188-10.781c3.6094-2.3906 7.2188-6 9.6094-8.3906s1.2188-6-1.2188-8.3906c-2.3906-2.3906-4.7812-2.3906-8.3906 0s-4.7812 4.7812-6 8.3906c-2.3906 6-6 6-10.781 4.7812-7.0781-4.8281-8.2969-4.8281-10.688 3.5625-1.2188 3.6094-2.3906 7.2188-6 7.2188-4.7812 1.2188-9.6094 2.3906-15.609 3.6094-10.781 2.3906-21.609 4.7812-32.391 8.3906-6 12-6 24-10.828 34.781zm61.219 33.609c1.2188 0 2.3906 1.2188 2.3906 2.3906 0 3.6094-1.2188 6-3.6094 6-1.2188 0-2.3906-1.2188-2.3906-2.3906-1.1719-2.3906 1.2188-4.7812 3.6094-6z" fill="#012f69"/>
 <path d="m592.78 507.61c-9.6094 1.2188-19.219 4.7812-22.781 15.609-1.2188 1.2188-3.6094 2.3906-4.7812 4.7812-3.6094-4.7812-1.2188-8.3906 0-13.219 0 0-2.3906-2.3906-3.6094-1.2188-3.6094 1.2188-7.2188 4.7812-6 8.3906 2.3906 7.2188 1.2188 13.219-1.2188 19.219-2.3906 8.3906-2.3906 18 2.3906 26.391 1.2188 3.6094 3.6094 7.2188 4.7812 10.781 0 12 9.6094 18 18 22.781 3.6094 2.3906 8.3906 2.3906 13.219 2.3906 15.609-1.2188 30-8.3906 46.781-7.2188 3.6094 0 6-4.7812 6-8.3906-1.2188-2.3906-2.3906-6-3.6094-8.3906s-2.3906-6-1.2188-8.3906c4.7812-6 4.7812-12 1.2188-19.219-3.6094-6 3.6094-10.781 2.3906-16.781-1.2188-8.3906-13.219-4.7812-13.219-13.219 0-3.6094-2.3906-7.2188-6-9.6094-10.734-5.9062-21.516-5.9062-32.344-4.6875z" fill="#012f69"/>
 <path d="m331.22 548.39c3.6094-1.2188 7.2188-3.6094 10.781-3.6094 6 0 9.6094-4.7812 12-8.3906 7.2188-13.219 6-26.391 0-39.609-1.2188-2.3906-2.3906-3.6094-4.7812-4.7812-10.781-4.7812-20.391-9.6094-27.609-18-3.6094-3.6094-10.781-2.3906-13.219 2.3906-2.3906 3.6094-4.7812 8.3906-7.2188 12-1.1719 1.2188-3.5625 3.6094-7.1719 3.6094-2.3906-4.7812 1.2188-10.781 1.2188-15.609 0-9.6094-13.219-18-21.609-13.219-1.2188 1.2188-3.6094 3.6094-3.6094 4.7812-1.2188 6-2.3906 13.219-3.6094 20.391-1.2188 6-2.3906 9.6094-8.3906 12-4.7812 0.046875-6 3.6562-6 7.2656v15.609c-1.2188 8.3906 3.6094 13.219 10.781 18 3.6094 2.3906 7.2188 1.2188 10.781-1.2188 3.6094-2.3906 6-4.7812 7.2188-8.3906 3.6094-9.6094 7.2188-20.391 10.781-30h2.3906v15.609c0 6 2.3906 10.781 7.2188 13.219 7.2188 3.6094 14.391 8.3906 19.219 14.391 1.2188 3.5625 6 4.7812 10.828 3.5625z" fill="#012f69"/>
 <path d="m693.61 717.61c3.6094-9.6094 10.781-15.609 18-22.781 4.7812-6 2.3906-13.219 3.6094-19.219 0-3.6094-3.6094-6-7.2188-7.2188-3.6094-2.3906-2.3906-4.7812-1.2188-7.2188 1.2188-3.6094-1.2188-6-4.7812-6-2.3906 1.2188-6 2.3906-8.3906 3.6094-3.6094 1.2188-7.2188 0-9.6094-4.7812-6-10.781-6-10.781-15.609-6-6 2.3906-10.781 3.6094-13.219 10.781-1.2188 3.6094-4.7812 3.6094-7.2188 2.3906-2.3906-1.2188-3.6094-1.2188-6-1.2188-6 4.7812-1.2188 12-3.6094 18-2.3906 4.7812-2.3906 12-6 16.781-3.6094 6-1.2188 9.6094 3.6094 13.219 6 3.6094 6 8.3906 3.6094 15.609-1.2188 3.6094 2.3906 7.2188 6 7.2188 2.3906 0 4.7812 0 6-1.2188 6-2.3906 9.6094-1.2188 12 4.7812 1.2188 2.3906 6 2.3906 8.3906 1.2188 4.7812-7.2188 9.6094-13.219 19.219-13.219 0.046875-2.3438 2.4375-3.5625 2.4375-4.7344z" fill="#012f69"/>
 <path d="m500.39 666c2.3906 0 2.3906 3.6094 1.2188 6-1.2188 2.3906-4.7812 2.3906-4.7812 6 2.3906 2.3906 4.7812 6 7.2188 8.3906 2.3906 6 8.3906 6 13.219 4.7812 9.6094-1.2188 13.219-7.2188 13.219-16.781 0-8.3906-6-15.609-3.6094-25.219 2.3906-1.2188 3.6094-1.2188 6-2.3906 2.3906 0 4.7812 0 7.2188-1.2188 3.6094-1.2188 8.3906-6 7.2188-7.2188-2.3906-2.3906-4.7812-2.3906-8.3906-2.3906-4.7812 0-8.3906 4.7812-12 2.3906-6-13.219-6-13.219-19.219-19.219-2.3906-1.2188-3.6094-2.3906-6-3.6094 1.2188 9.6094 3.6094 16.781 2.3906 25.219 0 3.6094-1.2188 6-3.6094 7.2188s-4.7812-1.2188-4.7812-6 0-10.781-1.2188-15.609c-1.2188-7.2188-4.7812-12-12-14.391-4.7812-1.2188-8.3906-3.6094-12-6-2.3906-1.2188-6-1.2188-8.3906-1.2188-10.781 1.2188-26.391 19.219-25.219 31.219 0 4.7812 1.2188 8.3906 6 10.781 9.6094 6 20.391 8.3906 30 15.609 1.2188 1.2188 4.7812 1.2188 6 0 5.9062-2.3438 13.125 2.4375 21.516 3.6562z" fill="#012f69"/>
 <path d="m494.39 472.78c0-8.3906-2.3906-14.391-7.2188-18-6-6-12-12-19.219-14.391s-10.781-6-14.391-12c-1.2188-2.3906-6-2.3906-8.3906 0l-4.7812 4.7812c-6 14.391-12 30-14.391 45.609-1.2188 6 1.2188 9.6094 6 13.219 7.2188 4.7812 8.3906 12 3.6094 19.219-2.3906 3.6094-1.2188 7.2188 2.3906 9.6094s7.2188 4.7812 10.781 1.2188c4.7812-4.7812 9.6094-7.2188 15.609-4.7812 3.6094 1.2188 7.2188-1.2188 9.6094-4.7812 6-10.781 12-22.781 18-33.609 2.3906-1.2656 2.3906-4.875 2.3906-6.0938z" fill="#012f69"/>
 <path d="m788.39 823.22c-4.7812-4.7812-10.781-8.3906-15.609-12-8.3906-6-16.781-4.7812-22.781 3.6094-3.6094 4.7812-3.6094 12-8.3906 15.609-3.6094 2.3906-7.2188 4.7812-8.3906 9.6094 0 7.2188 6 8.3906 9.6094 10.781 6 4.7812 13.219 9.6094 21.609 9.6094 2.3906 0 4.7812 0 6-1.2188 12-6 15.609-18 20.391-31.219-0.046875-1.2188-1.2188-3.6094-2.4375-4.7812z" fill="#012f69"/>
 <path d="m373.22 202.78c21.609-4.7812 39.609-15.609 51.609-36 2.3906-3.6094 2.3906-7.2188 0-10.781-2.3906-3.6094-7.2188-6-10.781-6-7.2188 0-13.219 3.6094-18 7.2188-14.391 8.3906-26.391 19.219-38.391 31.219-2.3906 2.3906-3.6094 4.7812-4.7812 7.2188 10.734 8.3438 13.125 8.3438 20.344 7.125z" fill="#012f69"/>
 <path d="m1011.6 387.61c8.3906-7.2188 6-14.391 3.6094-22.781-2.3906-7.2188-8.3906-12-14.391-16.781-6-3.6094-10.781-7.2188-18-12-9.6094 9.6094-10.781 10.781-10.781 14.391 0 4.7812 0 10.781 3.6094 15.609 4.7812 6 4.7812 13.219 8.3906 20.391 2.3906 6 1.2188 13.219 4.7812 19.219 1.2188 1.2188 2.3906 2.3906 3.6094 2.3906 1.2188 1.2188 2.3906 0 3.6094-1.2188 1.2188-2.3906 1.2188-6 2.3906-6 5.9531-1.2188 8.3438-8.4375 13.172-13.219z" fill="#012f69"/>
 <path d="m596.39 140.39c1.2188 0 7.2188 0 12-2.3906 10.781-3.6094 16.781-10.781 16.781-22.781 0-4.7812-2.3906-8.3906-6-10.781-19.219-12-43.219-3.6094-51.609 16.781-1.2188 3.6094 0 7.2188 2.3906 10.781 4.8281 8.3906 13.266 9.6094 26.438 8.3906z" fill="#012f69"/>
 <path d="m393.61 519.61c7.2188-4.7812 12-10.781 12-20.391 0-4.7812 1.2188-8.3906 2.3906-13.219 1.2188-6 2.3906-12 1.2188-18-3.6094-13.219-6-19.219-21.609-14.391-3.6094 1.2188-8.3906 2.3906-14.391 4.7812 7.2188 8.3906 3.6094 15.609-3.6094 21.609-1.2188 1.2188-2.3906 2.3906-2.3906 3.6094-1.2188 2.3906 0 8.3906 2.3906 8.3906 12 0 13.219 8.3906 16.781 16.781 1.2188 4.8281 2.3906 9.6094 7.2188 10.828z" fill="#012f69"/>
 <path d="m596.39 789.61c-1.2188-3.6094-3.6094-6-7.2188-4.7812-7.2188 1.2188-10.781-2.3906-15.609-6-6-4.7812-12-7.2188-19.219-10.781-6 12-6 12-18 22.781 1.2188 3.6094 2.3906 6 4.7812 9.6094 9.6094 16.781 12 18 30 8.3906 8.3906-3.6094 14.391-13.219 25.219-13.219 1.2656 0 1.2656-3.6094 0.046875-6z" fill="#012f69"/>
 <path d="m547.22 236.39c1.2188 1.2188 2.3906 1.2188 3.6094 2.3906 3.6094 2.3906 9.6094 2.3906 12-1.2188 6-8.3906 13.219-15.609 21.609-21.609-1.2188-7.2188-4.7812-12-8.3906-16.781-3.6094-3.6094-8.3906-4.7812-12-3.6094-6 2.3906-12 6-18 9.6094-14.438 9.6094-14.438 19.219 1.1719 31.219z" fill="#012f69"/>
 <path d="m352.78 668.39c1.2188 2.3906 6 1.2188 8.3906-1.2188 2.3906-2.3906 3.6094-4.7812 2.3906-8.3906-2.3906-3.6094-6-7.2188-7.2188-10.781-1.2188-9.6094-8.3906-18-12-26.391-3.6094-7.2188-8.3906-7.2188-13.219 0-6 8.3906-9.6094 16.781-10.781 27.609 7.2188 3.6094 12 7.2188 16.781 9.6094 4.875 3.5625 12.094 2.3906 15.656 9.5625z" fill="#012f69"/>
 <path d="m945.61 921.61c-1.2188-1.2188-4.7812-1.2188-6 0-12 7.2188-22.781 16.781-31.219 28.781-1.2188 2.3906-2.3906 3.6094-2.3906 6-2.3906 6 4.7812 16.781 10.781 16.781 1.2188 0 3.6094 0 3.6094-1.2188 15.609-10.781 24-26.391 27.609-44.391 0-2.3438-1.2188-4.7812-2.3906-5.9531z" fill="#012f69"/>
 <path d="m268.78 553.22c-6-7.2188-13.219-6-20.391-4.7812-2.3906 0-3.6094 2.3906-4.7812 3.6094-1.2188 2.3906-1.2188 6-2.3906 8.3906-1.2188 10.781 2.3906 18 10.781 22.781 1.2188 1.2188 4.7812 2.3906 6 1.2188 3.6094-4.7812 8.3906-2.3906 12-2.3906s7.2188-2.3906 8.3906-7.2188c2.3906-6 2.3906-10.781 1.2188-18-2.3906-3.6094-8.3906-0.046875-10.828-3.6094z" fill="#012f69"/>
 <path d="m902.39 502.78c-1.2188-7.2188-4.7812-12-12-15.609-8.3906-3.6094-14.391-2.3906-18 6-2.3906 8.3906-4.7812 16.781-7.2188 25.219 0 2.3906 1.2188 4.7812 2.3906 4.7812 1.2188 0 3.6094 0 3.6094-1.2188 4.7812-6 10.781-9.6094 19.219-8.3906 9.6094 2.4375 14.391-3.5625 12-10.781z" fill="#012f69"/>
 <path d="m432 608.39c1.2188-1.2188 2.3906-3.6094 1.2188-6-1.2188-1.1719-2.4375-2.3906-3.6094-2.3906-8.3906 3.6094-14.391 0-16.781-8.3906-1.2188-2.3906-2.3906-3.6094-4.7812-4.7812-1.2188-2.3906-6-1.2188-8.3906 1.2188-4.7812 4.7812-4.7812 10.781-6 16.781 0 9.6094 4.7812 15.609 14.391 20.391 4.7812 2.3906 10.781 1.2188 13.219-4.7812 2.3438-7.2188 7.125-8.4375 10.734-12.047z" fill="#012f69"/>
 <path d="m265.22 241.22c-8.3906 3.6094-16.781 7.2188-22.781 14.391-3.6094 3.6094-6 8.3906-4.7812 14.391 0 4.7812 4.7812 9.6094 8.3906 9.6094 1.2188 0 3.6094 0 4.7812-1.2188 2.3906-1.2188 6-2.3906 7.2188-4.7812 7.2188-7.2188 12-16.781 13.219-27.609 1.125-2.3906-2.4844-6-6.0469-4.7812z" fill="#012f69"/>
 <path d="m526.78 804c-3.6094-2.3906-7.2188-2.3906-10.781-2.3906-2.3906 0-6 3.6094-6 6 2.3906 8.3906 3.6094 15.609 12 20.391s16.781 9.6094 26.391 4.7812c-3.6094-12-9.6094-22.781-21.609-28.781z" fill="#012f69"/>
 <path d="m232.78 610.78c-4.7812 6-9.6094 10.781-9.6094 19.219 0 8.3906-3.6094 15.609-12 20.391-1.2188 1.2188-2.3906 2.3906-2.3906 3.6094-1.2188 2.3906 0 6 3.6094 7.2188s8.3906 0 9.6094-3.6094c2.3906-9.6094 8.3906-15.609 15.609-20.391 2.3906-1.2188 3.6094-2.3906 4.7812-4.7812 1.2188-2.3906 2.3906-4.7812 3.6094-8.3906-1.2188-4.7812-3.6094-8.3906-4.7812-13.219-1.2188-1.2188-6-2.4375-8.4375-0.046875z" fill="#012f69"/>
 <path d="m957.61 765.61c-3.6094 8.3906-8.3906 18-12 26.391-1.2188 3.6094-2.3906 8.3906-1.2188 13.219 0 1.2188 1.2188 2.3906 2.3906 3.6094 2.3906-1.2188 4.7812-1.2188 6-2.3906 9.6094-9.6094 15.609-20.391 19.219-32.391 1.2188-2.3906 1.2188-4.7812 0-7.2188 0-3.6094-2.3906-4.7812-6-6s-7.2188-0.046875-8.3906 4.7812z" fill="#012f69"/>
 <path d="m406.78 768c-6-4.7812-12-6-16.781 2.3906-1.2188 2.3906-3.6094 1.2188-6 1.2188-2.3906-1.2188-4.7812-1.2188-6-1.2188s-2.3906 1.2188-3.6094 2.3906v3.6094c3.6094 8.3906 14.391 7.2188 19.219 13.219 0 0 2.3906-1.2188 3.6094-2.3906 1.2188-1.2188 2.3906-3.6094 4.7812-7.2188 2.3906 2.3906 2.3906 3.6094 3.6094 4.7812 1.2188 1.2188 2.3906 1.2188 3.6094 1.2188s2.3906-1.2188 3.6094-2.3906c4.7812-3.6094 4.7812-8.3906 0-10.781-1.2188-1.2188-3.6094-2.4375-6.0469-4.8281z" fill="#012f69"/>
 <path d="m722.39 736.78c3.6094 2.3906 6 3.6094 9.6094 4.7812 2.3906-1.2188 3.6094-1.2188 4.7812-2.3906 3.6094-10.781 6-21.609 8.3906-31.219 0-2.3906-3.6094-4.7812-7.2188-4.7812-7.2188 1.2188-10.781 4.7812-12 10.781s0 12-4.7812 16.781c-2.3906 2.4844-1.1719 4.875 1.2188 6.0469z" fill="#012f69"/>
 <path d="m850.78 218.39c3.6094 3.6094 10.781 0 12-4.7812s0-9.6094-3.6094-12c-6-4.7812-12-7.2188-19.219-10.781-1.2188-1.2188-2.3906 0-4.7812 0-1.2188 1.2188-2.3906 1.2188-2.3906 2.3906-1.2188 3.6094-1.2188 7.2188 1.2188 10.781 6 4.7812 10.781 9.6094 16.781 14.391z" fill="#012f69"/>
 <path d="m499.22 830.39c-4.7812-4.7812-7.2188-12-15.609-10.781-6 9.6094 4.7812 13.219 7.2188 19.219 2.3906 4.7812 7.2188 9.6094 10.781 13.219 6 6 12 4.7812 22.781-2.3906-9.6094-4.875-16.781-12.047-25.172-19.266z" fill="#012f69"/>
 <path d="m637.22 764.39v-2.3906c-4.7812-8.3906-10.781-12-20.391-10.781-6 0-10.781 9.6094-8.3906 15.609 4.7812 8.3906 20.391 9.6094 27.609 2.3906 1.1719-1.2188 1.1719-3.6094 1.1719-4.8281z" fill="#012f69"/>
 <path d="m634.78 493.22c2.3906 6 6 12 13.219 14.391 3.6094 1.2188 7.2188 0 9.6094-2.3906s4.7812-6 3.6094-9.6094c-2.3906-6-12-13.219-19.219-13.219-3.6094-1.1719-8.3906 6-7.2188 10.828z" fill="#012f69"/>
 <path d="m457.22 775.22c-3.6094-1.2188-6 0-7.2188 3.6094-2.3906 6-4.7812 12-7.2188 18 4.7812 6 10.781 6 18 4.7812 2.3906-1.2188 3.6094-2.3906 4.7812-3.6094 4.8281-8.3906 1.2188-20.391-8.3438-22.781z" fill="#012f69"/>
 <path d="m602.39 855.61c-1.2188-2.3906-1.2188-3.6094-2.3906-7.2188-7.2188 6-9.6094 15.609-19.219 19.219-2.3906 1.2188-3.6094 4.7812-2.3906 7.2188 1.2188 1.2188 3.6094 3.6094 4.7812 3.6094 8.3906 2.3906 14.391-1.2188 19.219-7.2188 6-4.8281 2.3906-9.6094 0-15.609z" fill="#012f69"/>
 <path d="m384 754.78c4.7812-3.6094 0-8.3906-1.2188-12-2.3906-4.7812-4.7812-9.6094-7.2188-13.219-6 2.3906-8.3906 6-12 10.781-1.2188 1.2188-1.2188 3.6094-1.2188 6 0 3.6094 3.6094 9.6094 7.2188 9.6094 4.8281 1.2656 10.828 2.4375 14.438-1.1719z" fill="#012f69"/>
 <path d="m718.78 860.39c-3.6094-1.2188-8.3906 1.2188-10.781 4.7812-2.3906 3.6094 0 7.2188 1.2188 9.6094 2.3906 3.6094 6 7.2188 10.781 6s8.3906-6 10.781-10.781c0-1.2188-1.2188-3.6094-1.2188-3.6094-2.3438-2.3906-5.9531-4.7812-10.781-6z" fill="#012f69"/>
 <path d="m480 415.22c1.2188-6-3.6094-12-10.781-12-3.6094 0-9.6094 3.6094-9.6094 7.2188-1.2188 6 6 13.219 12 13.219 3.6094 1.125 8.3906-3.6562 8.3906-8.4375z" fill="#012f69"/>
 <path d="m969.61 867.61c-1.2188-1.2188-3.6094-2.3906-6-1.2188-6 6-10.781 12-16.781 16.781-1.2188 1.2188-1.2188 3.6094 0 6 1.2188 1.2188 2.3906 1.2188 3.6094 2.3906 3.6094 0 7.2188-1.2188 9.6094-3.6094 3.6094-4.7812 6-9.6094 9.6094-14.391 2.3438-2.3438 1.125-4.7812-0.046875-5.9531z" fill="#012f69"/>
 <path d="m460.78 189.61c4.7812 0 8.3906-1.2188 12-3.6094s4.7812-6 3.6094-9.6094c-1.2188-3.6094-4.7812-6-8.3906-6-4.7812 0-8.3906 1.2188-12 4.7812-3.6094 2.3906-4.7812 6-2.3906 9.6094 1.1719 3.6094 3.6094 4.8281 7.1719 4.8281z" fill="#012f69"/>
 <path d="m751.22 261.61c4.7812 0 8.3906-3.6094 8.3906-7.2188 0-7.2188-4.7812-13.219-9.6094-12-3.6094 0-7.2188 4.7812-8.3906 9.6094 0 4.7812 4.7812 9.6094 9.6094 9.6094z" fill="#012f69"/>
 <path d="m420 530.39c-2.3906-2.3906-6-4.7812-9.6094-2.3906-7.2188 3.6094-10.781 9.6094-15.609 20.391 10.781-3.6094 18-6 25.219-8.3906 2.3906-1.2188 2.3906-7.2188 0-9.6094z" fill="#012f69"/>
 <path d="m610.78 667.22c-2.3906-1.2188-7.2188 0-7.2188 2.3906s-1.2188 4.7812-1.2188 6v7.2188c0 3.6094 3.6094 6 8.3906 6 8.3906-1.2188 12-7.2188 7.2188-13.219-1.1719-3.6094-4.7344-6-7.1719-8.3906z" fill="#012f69"/>
 <path d="m1005.6 740.39c2.3906-1.2188 4.7812-3.6094 6-6 1.2188-3.6094 1.2188-7.2188 1.2188-10.781 0-2.3906 0-4.7812-1.2188-7.2188 0-2.3906-1.2188-3.6094-3.6094-4.7812-2.3906 0-4.7812 1.2188-4.7812 3.6094-1.2188 7.2188-6 14.391-4.7812 21.609 1.1719 3.5625 4.7812 4.7812 7.1719 3.5625z" fill="#012f69"/>
 <path d="m516 865.22c-1.2188 0-3.6094 2.3906-3.6094 3.6094 1.2188 9.6094 7.2188 14.391 15.609 13.219 3.6094 0 6-2.3906 6-6 0-2.3906 0-4.7812-1.2188-6-3.5625-2.4375-9.5625-4.8281-16.781-4.8281z" fill="#012f69"/>
 <path d="m212.39 291.61c-4.7812 6-10.781 12-15.609 19.219-1.2188 2.3906-1.2188 6 2.3906 8.3906 8.3906-4.7812 13.219-14.391 19.219-21.609 1.2188-1.2188 1.2188-3.6094 0-6-2.3906-2.3906-4.7812-1.2188-6 0z" fill="#012f69"/>
 <path d="m699.61 597.61c-3.6094 0-4.8281 2.3906-3.6094 6 2.3906 4.7812 4.7812 9.6094 9.6094 12h4.7812c1.2188-1.2188 3.6094-1.2188 3.6094-2.3906-1.2188-10.828-4.7812-18-14.391-15.609z" fill="#012f69"/>
 <path d="m920.39 674.39c0-4.7812-4.7812-9.6094-10.781-9.6094-3.6094 0-6 2.3906-6 7.2188 0 7.2188 1.2188 10.781 4.7812 10.781 7.2188 2.4375 13.219-2.3906 12-8.3906z" fill="#012f69"/>
 <path d="m265.22 308.39c0-1.2188-1.2188-2.3906-2.3906-2.3906-1.2188 0-3.6094 0-3.6094 1.2188-4.7812 7.2188-8.3906 14.391-6 24 2.3906-1.2188 3.6094-1.2188 6-2.3906 7.1719-7.2188 8.3906-10.828 6-20.438z" fill="#012f69"/>
 <path d="m252 330c-1.2188 0-1.2188 0 0 0-1.2188 0-1.2188 0 0 0-1.2188 1.2188-1.2188 1.2188 0 0z" fill="#012f69"/>
 <path d="m297.61 639.61c-2.3906 9.6094 1.2188 16.781 4.7812 24 1.2188 2.3906 3.6094 2.3906 6 1.2188 6-2.3906 7.2188-8.3906 3.6094-12-4.7812-4.8281-8.3906-8.4375-14.391-13.219z" fill="#012f69"/>
 <path d="m499.22 582c-2.3906 3.6094-7.2188 6-7.2188 10.781 6 3.6094 13.219 1.2188 19.219 0 3.6094-1.2188 4.7812-6 2.3906-8.3906-3.6094-6-9.6094-7.1719-14.391-2.3906z" fill="#012f69"/>
 <path d="m522 496.78c6-2.3906 10.781-6 12-12 1.2188-3.6094-1.2188-6-3.6094-7.2188s-4.7812-1.2188-6 0c-4.7812 3.6562-8.3906 8.4375-8.3906 14.438 0 2.3906 1.2188 3.6094 2.3906 6 1.2188-1.2188 2.3906 0 3.6094-1.2188z" fill="#012f69"/>
 <path d="m499.22 534c2.3906 1.2188 6 1.2188 8.3906 1.2188s3.6094-1.2188 4.7812-4.7812v-4.7812c-1.2188-4.7812-8.3906-10.781-10.781-9.6094-3.6094 1.2188-4.7812 6-6 9.6094 0 5.9531 0 8.3438 3.6094 8.3438z" fill="#012f69"/>
 <path d="m592.78 367.22c-3.6094 1.2188-7.2188 6-7.2188 9.6094s4.7812 7.2188 7.2188 6c4.7812 0 8.3906-3.6094 8.3906-8.3906 0.046875-4.8281-3.5625-8.4375-8.3906-7.2188z" fill="#012f69"/>
 <path d="m742.78 879.61c-1.2188 0-2.3906 0-3.6094 1.2188-8.3906 6-8.3906 13.219 1.2188 18 1.2188 1.2188 3.6094 1.2188 6 2.3906 0-6 1.2188-10.781 1.2188-16.781-1.2188-2.4375-2.3906-3.6562-4.8281-4.8281z" fill="#012f69"/>
 <path d="m746.39 901.22c0 1.2188 0 1.2188 1.2188 1.2188-1.2188-0.046875-1.2188-1.2188-1.2188-1.2188z" fill="#012f69"/>
 <path d="m220.78 669.61c-3.6094 0-9.6094 3.6094-9.6094 7.2188s1.2188 7.2188 4.7812 9.6094c2.3906 1.2188 4.7812 1.2188 6 0 3.6094-3.6094 4.7812-7.2188 4.7812-12 0.046875-3.6562-2.3438-4.8281-5.9531-4.8281z" fill="#012f69"/>
 <path d="m494.39 702c-6-1.2188-10.781-2.3906-16.781-3.6094-1.2188 0-2.3906 1.2188-3.6094 2.3906v3.6094c1.2188 3.6094 4.7812 6 8.3906 6 6 0 10.828-2.3906 12-8.3906z" fill="#012f69"/>
 <path d="m1003.2 444c0 9.6094 7.2188 15.609 13.219 21.609 1.2188 1.2188 2.3906 1.2188 3.6094-1.2188l1.2188-1.2188c-2.4844-9.5625-6.0469-17.953-18.047-19.172z" fill="#012f69"/>
 <path d="m343.22 778.78c-2.3906 1.2188-4.7812 3.6094-4.7812 7.2188 0 2.3906 3.6094 4.7812 6 6 2.3906 2.3906 6 2.3906 9.6094 1.2188 0-3.6094 0-7.2188-1.2188-10.781-0.046875-4.8281-4.8281-7.2188-9.6094-3.6562z" fill="#012f69"/>
 <path d="m588 910.78c-1.2188 0-3.6094 1.2188-4.7812 1.2188-2.3906 1.2188-3.6094 6-1.2188 7.2188 3.6094 2.3906 7.2188 4.7812 12 4.7812 2.3906 0 4.7812-3.6094 4.7812-6-1.1719-6-4.7812-7.2188-10.781-7.2188z" fill="#012f69"/>
 <path d="m739.22 798c-3.6094 0-6 3.6094-6 8.3906 0 3.6094 3.6094 7.2188 7.2188 7.2188s6-3.6094 6-8.3906c-0.046875-4.8281-3.6562-7.2188-7.2188-7.2188z" fill="#012f69"/>
 <path d="m888 770.39c-3.6094 1.2188-6 4.7812-4.7812 8.3906 0 3.6094 2.3906 6 4.7812 7.2188s4.7812 1.2188 6-1.2188c1.2188-2.3906 1.2188-3.6094 1.2188-4.7812v-6c-1.2188-3.6094-4.8281-4.7812-7.2188-3.6094z" fill="#012f69"/>
 <path d="m709.22 772.78c-1.2188-2.3906-2.3906-4.7812-6-6-1.2188 0-1.2188 0-2.3906 1.2188-1.2188 1.2188-3.6094 3.6094-3.6094 4.7812-1.2188 3.6094-1.2188 7.2188 2.3906 9.6094 1.2188 1.2188 4.7812 1.2188 6 0 4.7812-2.3906 4.7812-6 3.6094-9.6094z" fill="#012f69"/>
 <path d="m616.78 723.61c1.2188 0 1.2188-2.3906 1.2188-3.6094-1.2188-3.6094-4.7812-4.7812-8.3906-6-4.7812-1.2188-8.3906 0-8.3906 3.6094s2.3906 7.2188 6 7.2188c4.7812-0.046875 7.1719-1.2188 9.5625-1.2188z" fill="#012f69"/>
 <path d="m508.78 469.22c2.3906-1.2188 4.7812-3.6094 3.6094-8.3906-1.2188-1.2188-2.3906-3.6094-3.6094-6-2.3906-2.3906-4.7812-3.6094-7.2188 0-1.2188 1.2188-2.3906 3.6094-2.3906 6s2.3906 4.7812 3.6094 7.2188c1.2188 1.1719 3.6094 1.1719 6 1.1719z" fill="#012f69"/>
 <path d="m734.39 352.78c4.7812 0 7.2188-3.6094 7.2188-8.3906 0-3.6094-3.6094-6-7.2188-6-4.7812 0-8.3906 3.6094-8.3906 8.3906 1.2188 4.8281 3.6094 7.2188 8.3906 6z" fill="#012f69"/>
 <path d="m438 754.78c-3.6094-4.7812-13.219-4.7812-16.781 0-1.2188 1.2188 0 4.7812 2.3906 6 1.2188 0 2.3906 0 4.7812 1.2188 4.7812 0 7.2188 0 9.6094-2.3906z" fill="#012f69"/>
 <path d="m511.22 732c-3.6094-4.7812-7.2188-7.2188-13.219-7.2188-1.2188 1.2188-2.3906 3.6094-2.3906 4.7812 2.3906 6 8.3906 8.3906 14.391 4.7812 0 1.2656 1.2188-1.125 1.2188-2.3438z" fill="#012f69"/>
 <path d="m981.61 496.78c-1.2188 1.2188-3.6094 3.6094-3.6094 4.7812 1.2188 3.6094 3.6094 6 4.7812 9.6094 0 1.2188 2.3906 1.2188 3.6094 0s3.6094-2.3906 3.6094-4.7812c2.3906-6-2.3906-9.6094-8.3906-9.6094z" fill="#012f69"/>
 <path d="m291.61 198c4.7812 0 13.219-7.2188 13.219-13.219 0-1.2188-2.3906-2.3906-2.3906-2.3906-6 1.2188-12 8.3906-12 13.219-1.2188 1.1719-0.046875 1.1719 1.1719 2.3906z" fill="#012f69"/>
 <path d="m499.22 382.78c0 3.6094 2.3906 7.2188 6 7.2188s7.2188-2.3906 7.2188-6c0-4.7812-1.2188-7.2188-4.7812-8.3906-3.6562 0-8.4375 2.3906-8.4375 7.1719z" fill="#012f69"/>
 <path d="m978 889.22c-1.2188 0-3.6094 0-3.6094 1.2188-1.2188 2.3906-3.6094 4.7812-4.7812 7.2188-1.2188 3.6094 1.2188 6 3.6094 7.2188s6-1.2188 6-3.6094 0-4.7812 1.2188-6v-3.6094c-0.046875-1.2656-1.2188-2.4375-2.4375-2.4375z" fill="#012f69"/>
 <path d="m368.39 560.39c0 1.2188 0 3.6094 1.2188 3.6094 2.3906 2.3906 4.7812 2.3906 8.3906 1.2188 3.6094-1.2188 4.7812-3.6094 4.7812-6s-2.3906-6-6-6c-3.5625 1.1719-7.1719 3.5625-8.3906 7.1719z" fill="#012f69"/>
 <path d="m783.61 601.22c0 2.3906 3.6094 4.7812 6 4.7812 4.7812 0 7.2188-3.6094 6-7.2188 0-2.3906-3.6094-6-6-4.7812-3.6094 1.2188-6 3.6094-6 7.2188z" fill="#012f69"/>
 <path d="m439.22 772.78c-3.6094-1.2188-4.7812 1.2188-7.2188 4.7812-1.2188 2.3906-1.2188 6 0 8.3906 1.2188 1.2188 2.3906 1.2188 3.6094 2.3906 1.2188 0 3.6094-1.2188 3.6094-1.2188 1.2188-2.3906 1.2188-3.6094 2.3906-6 2.3906-4.7344 1.1719-7.125-2.3906-8.3438z" fill="#012f69"/>
 <path d="m723.61 764.39c-2.3906 2.3906-3.6094 4.7812-1.2188 7.2188 1.2188 1.2188 2.3906 2.3906 3.6094 2.3906 3.6094 0 6-2.3906 7.2188-7.2188 0-1.2188-1.2188-2.3906-1.2188-3.6094-3.6094-2.3906-6-1.1719-8.3906 1.2188z" fill="#012f69"/>
 <path d="m771.61 691.22c2.3906-1.2188 4.7812-2.3906 4.7812-6 0-2.3906-3.6094-4.7812-7.2188-3.6094-3.6094 1.2188-4.7812 3.6094-4.7812 7.2188 0 2.3906 3.6094 3.5625 7.2188 2.3906z" fill="#012f69"/>
 <path d="m294 535.22c-1.2188 0-3.6094 1.2188-3.6094 1.2188-2.3906 3.6094-2.3906 7.2188 2.3906 12 1.2188 1.2188 2.3906 1.2188 3.6094 0 2.3906-3.6562 1.2188-10.828-2.3906-13.219z" fill="#012f69"/>
 <path d="m694.78 243.61c3.6094 1.2188 6-2.3906 6-7.2188 0-3.6094-2.3906-6-6-4.7812s-6 2.3906-6 6c1.2188 2.3906 3.6094 4.7812 6 6z" fill="#012f69"/>
 <path d="m812.39 214.78 1.2188-1.2188c1.2188-4.7812-6-12-10.781-10.781-1.2188 1.2188-2.3906 2.3906-2.3906 3.6094-0.046875 4.8281 5.9531 9.6094 11.953 8.3906z" fill="#012f69"/>
 <path d="m639.61 820.78c-3.6094 0-6 3.6094-4.7812 8.3906 0 2.3906 1.2188 4.7812 3.6094 3.6094 3.6094 0 8.3906-3.6094 7.2188-7.2188-1.2656-2.3438-3.6562-4.7812-6.0469-4.7812z" fill="#012f69"/>
 <path d="m817.22 955.22s-1.2188 1.2188-1.2188 2.3906c1.2188 1.2188 3.6094 2.3906 4.7812 3.6094 2.3906 1.2188 6 0 7.2188-2.3906 0-1.2188 0-1.2188-1.2188-2.3906-1.1719-4.8281-6-4.8281-9.5625-1.2188z" fill="#012f69"/>
 <path d="m903.61 738c2.3906-1.2188 3.6094-2.3906 2.3906-4.7812s-3.6094-3.6094-7.2188-2.3906c-2.3906 1.2188-3.6094 2.3906-3.6094 4.7812 2.4375 2.3906 6.0469 3.6094 8.4375 2.3906z" fill="#012f69"/>
 <path d="m396 570c2.3906 0 3.6094-1.2188 3.6094-3.6094 0-4.7812-2.3906-7.2188-6-8.3906-1.2188 0-2.3906 0-3.6094 1.2188-2.3906 1.2188 0 3.6094 0 6s2.3906 4.7812 6 4.7812z" fill="#012f69"/>
 <path d="m825.61 480c0 3.6094 3.6094 4.7812 6 4.7812s3.6094-2.3906 4.7812-3.6094c1.2188-2.3906-2.3906-6-4.7812-6-3.6094 0.046875-7.2188 2.4375-6 4.8281z" fill="#012f69"/>
 <path d="m697.22 362.39c0 3.6094 1.2188 6 4.7812 6 3.6094 0 4.7812-2.3906 4.7812-6s-2.3906-6-6-4.7812c-2.3906 1.1719-3.5625 2.3906-3.5625 4.7812z" fill="#012f69"/>
 <path d="m433.22 150c3.6094-1.2188 8.3906-2.3906 9.6094-6 1.2188-1.2188 0-2.3906-1.2188-3.6094-4.7812-1.2188-8.3906-1.2188-12 2.3906-1.2188 1.2188-2.3906 3.6094-1.2188 6 1.2188 0 3.6094 0 4.8281 1.2188z" fill="#012f69"/>
 <path d="m655.22 134.39c2.3906 1.2188 3.6094-1.2188 4.7812-3.6094-1.2188-1.2188-1.2188-3.6094-3.6094-4.7812-1.2188-1.2188-3.6094-2.3906-6-1.2188-2.3906 1.2188-2.3906 3.6094-1.2188 6 2.4375 1.2188 4.8281 2.4375 6.0469 3.6094z" fill="#012f69"/>
 <path d="m604.78 987.61v3.6094c4.7812 1.2188 8.3906 6 13.219 3.6094-2.3906-4.7812-6-8.3906-10.781-9.6094 0 0-1.2188 1.1719-2.4375 2.3906z" fill="#012f69"/>
 <path d="m552 166.78c3.6094 0 7.2188-2.3906 8.3906-4.7812 0-2.3906-2.3906-3.6094-3.6094-3.6094-3.6094 0-6 1.2188-7.2188 3.6094-1.1719 2.3906 1.2188 3.6094 2.4375 4.7812z" fill="#012f69"/>
 <path d="m499.22 178.78c2.3906 0 4.7812-1.2188 7.2188-4.7812 0-1.2188-1.2188-2.3906-1.2188-2.3906-2.3906-1.2188-6-1.2188-7.2188 1.2188-1.2188 1.2188-1.2188 2.3906 0 3.6094-1.2188 1.1719 0 2.3438 1.2188 2.3438z" fill="#012f69"/>
 <path d="m313.22 234c1.2188-1.2188 2.3906-3.6094 3.6094-4.7812 1.2188-2.3906 0-4.7812-2.3906-4.7812-1.2188 0-3.6094 1.2188-3.6094 2.3906-1.2188 1.2188-1.2188 3.6094-1.2188 6 0-1.2188 2.3906-0.046875 3.6094 1.1719z" fill="#012f69"/>
 <path d="m314.39 454.78c0 2.3906 2.3906 3.6094 4.7812 2.3906 3.6094-1.2188 4.7812-3.6094 4.7812-6s-1.2188-3.6094-3.6094-4.7812c-3.5625 0-7.125 3.6094-5.9531 8.3906z" fill="#012f69"/>
 <path d="m428.39 658.78c-3.6094 0-7.2188 4.7812-4.7812 8.3906 1.2188 2.3906 2.3906 3.6094 4.7812 3.6094 3.6094-1.2188 4.7812-3.6094 3.6094-7.2188 0-2.3438-1.2188-4.7812-3.6094-4.7812z" fill="#012f69"/>
 <path d="m692.39 814.78c-2.3906 0-6 0-6 3.6094s2.3906 4.7812 6 6c1.2188-1.2188 3.6094-1.2188 4.7812-3.6094 0.046875-2.3906-2.3906-6-4.7812-6z" fill="#012f69"/>
 <path d="m520.78 938.39s1.2188 0 0 0c1.2188 0 1.2188 0 0 0 1.2188-1.1719 0-1.1719 0 0z" fill="#012f69"/>
 <path d="m511.22 938.39c-1.2188 0-2.3906 2.3906-2.3906 3.6094s0 2.3906 1.2188 3.6094c1.2188 2.3906 3.6094 2.3906 6 1.2188 3.6094-1.2188 4.7812-4.7812 6-8.3906-4.8281-0.046875-8.4375-1.2188-10.828-0.046875z" fill="#012f69"/>
 <path d="m883.22 939.61c-3.6094-1.2188-6 2.3906-6 4.7812s1.2188 3.6094 3.6094 4.7812c3.6094 0 6-2.3906 6-4.7812-0.046875-1.1719-2.4375-4.7812-3.6094-4.7812z" fill="#012f69"/>
 <path d="m442.78 124.78v-2.3906c-2.3906 0-3.6094-1.2188-6 0-2.3906 0-3.6094 1.2188-3.6094 3.6094 0 0 0 1.2188 1.2188 1.2188 2.3906 1.1719 6 0 8.3906-2.4375z" fill="#012f69"/>
 <path d="m1003.2 330c-1.2188-4.7812-3.6094-7.2188-8.3906-8.3906-0.046875 7.1719-0.046875 7.1719 8.3906 8.3906 2.3906 7.2188 7.2188 8.3906 13.219 8.3906-2.4375-4.7812-7.2188-8.3906-13.219-8.3906z" fill="#012f69"/>
 <path d="m638.39 787.22c2.3906 0 3.6094-1.2188 3.6094-4.7812 0-1.2188-1.2188-2.3906-2.3906-2.3906-2.3906 0-3.6094 1.2188-3.6094 4.7812 0-0.046875 1.2188 1.1719 2.3906 2.3906z" fill="#012f69"/>
 <path d="m943.22 829.22c-1.2188 2.3906 1.2188 3.6094 3.6094 3.6094 1.2188 0 3.6094-1.2188 6-1.2188-1.2188-1.2188-1.2188-2.3906-2.3906-3.6094-1.2188 0-2.4375 0-3.6562-1.2188-1.1719 1.2188-3.5625 1.2188-3.5625 2.4375z" fill="#012f69"/>
 <path d="m594 986.39c1.2188 0 2.3906-1.2188 2.3906-2.3906 0-1.2188 0-3.6094-1.2188-3.6094-1.2188-1.2188-3.6094-1.2188-6-1.2188 0 2.3906 0 3.6094 1.2188 6 0 0.046875 2.3906 1.2188 3.6094 1.2188z" fill="#012f69"/>
 <path d="m642 84c-2.3906-1.2188-3.6094-2.3906-4.7812-2.3906-2.3906 0-3.6094 0-6 1.2188 2.3906 1.2188 3.6094 2.3906 4.7812 2.3906 1.2188 0 3.6094-1.2188 6-1.2188z" fill="#012f69"/>
 <path d="m603.61 159.61c-1.2188 0-2.3906 1.2188-3.6094 1.2188 1.2188 1.2188 2.3906 3.6094 3.6094 4.7812l2.3906-1.2188c1.2188-3.6094 0-4.7812-2.3906-4.7812z" fill="#012f69"/>
 <path d="m786 186c0-1.2188 0-1.2188-1.2188-1.2188-2.3906-1.2188-3.6094 1.2188-4.7812 2.3906 0 1.2188 1.2188 2.3906 1.2188 2.3906 2.3906 0.046875 4.7812-1.1719 4.7812-3.5625z" fill="#012f69"/>
 <path d="m966 324 1.2188-1.2188c0-2.3906-1.2188-3.6094-3.6094-3.6094 0 0-1.2188 0-1.2188 1.2188-2.3906 1.2188 1.2188 4.8281 3.6094 3.6094z" fill="#012f69"/>
 <path d="m1009.2 518.39c1.2188 1.2188 3.6094 2.3906 4.7812 4.7812l1.2188-1.2188c0-1.2188 0-2.3906-1.2188-3.6094-1.2188-1.125-2.3906 0.046875-4.7812 0.046875z" fill="#012f69"/>
 <path d="m312 554.39c0-2.3906-1.2188-3.6094-3.6094-4.7812-1.2188 0-2.3906 1.2188-2.3906 2.3906-1.2188 2.3906 1.2188 3.6094 3.6094 4.7812 1.1719 0 1.1719-1.1719 2.3906-2.3906z" fill="#012f69"/>
 <path d="m496.78 759.61c0 1.2188 2.3906 1.2188 3.6094 1.2188 2.3906 0 3.6094-1.2188 7.2188-2.3906-2.3906-1.2188-4.7812-2.3906-6-2.3906-3.6094-0.046875-6 1.1719-4.8281 3.5625z" fill="#012f69"/>
 <path d="m937.22 774v6h1.2188c0-1.2188 1.2188-2.3906 1.2188-3.6094v-2.3906c0-1.2188-1.2188-1.2188-1.2188-1.2188-1.2188 0-1.2188 1.2188-1.2188 1.2188z" fill="#012f69"/>
 <path d="m544.78 866.39c0 1.2188 1.2188 1.2188 1.2188 1.2188 1.2188-1.2188 3.6094-2.3906 4.7812-3.6094l-2.3906-2.3906c-2.3906 0-3.6094 2.3906-3.6094 4.7812z" fill="#012f69"/>
 <path d="m598.78 963.61c-1.2188 0-1.2188 2.3906-1.2188 3.6094s0 3.6094 2.3906 3.6094c1.2188 0 1.2188-2.3906 1.2188-3.6094 0.046875-1.2188 1.2188-3.6094-2.3906-3.6094z" fill="#012f69"/>
 <path d="m603.61 398.39c0 1.2188 1.2188 2.3906 2.3906 2.3906 1.2188-1.2188 2.3906-2.3906 1.2188-3.6094l-1.2188-1.2188c-1.2188 1.2656-2.3906 1.2656-2.3906 2.4375z" fill="#012f69"/>
 <path d="m489.61 440.39c0-1.2188-1.2188-2.3906-1.2188-3.6094 0 1.2188-1.2188 2.3906-1.2188 3.6094l1.2188 1.2188s1.2188 0 1.2188-1.2188z" fill="#012f69"/>
 <path d="m1000.8 436.78c0 1.2188-1.2188 2.3906-1.2188 3.6094l3.6094 3.6094c0-1.2188 0-3.6094-1.2188-4.7812 0.046875-1.2188-1.1719-2.4375-1.1719-2.4375z" fill="#012f69"/>
 <path d="m523.22 504c1.2188 0 2.3906 1.2188 3.6094 1.2188l1.2188-1.2188c-1.2188 0-2.3906-1.2188-3.6094-1.2188-0.046875 0-0.046875 1.2188-1.2188 1.2188z" fill="#012f69"/>
 <path d="m475.22 552c1.2188 1.2188 2.3906 0 3.6094-1.2188 0-1.2188-1.2188-1.2188-1.2188-1.2188-1.2188 0-2.3906 1.2188-3.6094 1.2188 1.2188 0 1.2188 1.2188 1.2188 1.2188z" fill="#012f69"/>
 <path d="m243.61 598.78 1.2188 1.2188 1.2188-1.2188c0-1.2188-1.2188-2.3906-1.2188-3.6094-1.2188 1.2188-1.2188 2.4375-1.2188 3.6094z" fill="#012f69"/>
 <path d="m718.78 656.39c1.2188 0 2.3906-1.2188 3.6094-1.2188l-2.3906-2.3906c-1.2188 1.2188-2.3906 1.2188-3.6094 2.3906 1.2188 0.046875 2.3906 1.2188 2.3906 1.2188z" fill="#012f69"/>
 <path d="m362.39 700.78h-1.2188c0 1.2188-1.2188 1.2188 0 2.3906 0 2.3906 1.2188 2.3906 2.3906 0-1.1719-1.1719-1.1719-2.3906-1.1719-2.3906z" fill="#012f69"/>
 <path d="m502.78 700.78-2.3906-2.3906c-1.2188 1.2188-2.3906 2.3906-4.7812 3.6094h6s0-1.2188 1.1719-1.2188z" fill="#012f69"/>
 <path d="m576 738c0 1.2188 0 2.3906 1.2188 2.3906v-1.2188l-1.2188-1.2188c1.2188-1.1719 0-1.1719 0 0.046875z" fill="#012f69"/>
 <path d="m351.61 766.78c0 1.2188 1.2188 1.2188 1.2188 1.2188 0-1.2188 1.2188-2.3906 1.2188-3.6094l-1.2188-1.2188c-2.4375 0.046875-2.4375 1.2188-1.2188 3.6094z" fill="#012f69"/>
 <path d="m531.61 775.22 1.2188 1.2188c1.2188-1.2188 2.3906-2.3906 2.3906-3.6094s-1.2188-1.2188-2.3906-2.3906c-1.2188 2.3438-1.2188 3.5625-1.2188 4.7812z" fill="#012f69"/>
 <path d="m355.22 793.22v3.6094c0 1.2188 1.2188 1.2188 2.3906 2.3906 0-1.2188 1.2188-2.3906 0-3.6094 0-1.2188-1.2188-2.3906-2.3906-2.3906z" fill="#012f69"/>
 <path d="m552 834h-3.6094c0 1.2188 1.2188 2.3906 1.2188 2.3906h3.6094c0-1.1719 0-1.1719-1.2188-2.3906z" fill="#012f69"/>
 <path d="m501.61 93.609 1.2188-1.2188-1.2188-1.2188-1.2188 1.2188s0 1.2188 1.2188 1.2188z" fill="#012f69"/>
 <path d="m460.78 109.22-1.1719 1.1719 1.1719 1.2188z" fill="#012f69"/>
 <path d="m993.61 320.39c0 1.2188 1.1719 1.2188 0 0 1.1719 1.2188 1.1719 1.2188 0 0z" fill="#012f69"/>
 <path d="m992.39 319.22 1.2188 1.2188v-1.2188z" fill="#012f69"/>
 <path d="m267.61 337.22 1.2188-1.2188h-1.2188z" fill="#012f69"/>
 <path d="m326.39 600h-1.1719v1.2188z" fill="#012f69"/>
 <path d="m271.22 865.22c1.2188 2.3906 2.3906 6 4.7812 6 2.3906-2.3906 1.2188-6 0-8.3906-1.2188-1.2188-2.3906-1.2188-3.6094-1.2188-1.1719 1.1719-2.3906 2.3906-1.1719 3.6094z" fill="#012f69"/>
 <path d="m297.61 924c0 1.2188 1.2188 1.2188 1.2188 1.2188 2.3906 0 3.6094-1.2188 4.7812-3.6094 0-1.2188-1.2188-1.2188-2.3906-2.3906-2.4375 1.1719-4.8281 2.3906-3.6094 4.7812z" fill="#012f69"/>
 <path d="m128.39 535.22 1.2188-1.2188c0-1.2188 1.2188-2.3906 1.2188-3.6094v-4.7812c0-1.2188-1.2188-2.3906-2.3906-3.6094l-2.3906 2.3906v8.3906c-0.046875 1.2188 1.1719 2.4375 2.3438 2.4375z" fill="#012f69"/>
 <path d="m600 30c-314.39 0-570 255.61-570 570s255.61 570 570 570 570-255.61 570-570-255.61-570-570-570zm81.609 1086 1.2188-1.2188h3.6094c-1.2188 1.2188-2.4375 1.2188-4.8281 1.2188zm-556.82-649.22c1.2188-1.2188 2.3906-1.2188 3.6094-1.2188 2.3906-1.2188 4.7812-2.3906 6-1.2188 1.2188 0 2.3906 3.6094 2.3906 6-1.2188 6-3.6094 13.219-4.7812 19.219-2.3906 7.2188-2.3906 14.391-2.3906 22.781 0 2.3906 1.2188 3.6094 4.7812 3.6094 6-1.2188 8.3906 2.3906 8.3906 7.2188 1.2188 8.3906-2.3906 16.781-4.7812 24-1.2188 4.7812-2.3906 9.6094-4.7812 15.609 0 1.2188-1.2188 3.6094-2.3906 3.6094-13.219 2.3906-18 12-22.781 22.781h-2.3906c-1.2188 0-1.2188 0-1.2188-1.2188 0-14.391-4.7812-28.781-6-44.391 0-1.2188 1.2188-2.3906 2.3906-2.3906 1.2188 0 2.3906 0 3.6094 1.2188 3.5625 1.2188 3.5625 2.3906 4.7812 4.8281 1.2188 2.3906 2.3906 4.7812 3.6094 7.2188 4.7812-2.3906 7.2188-4.7812 4.7812-9.6094-2.3906-8.3906-2.3906-16.781-2.3906-24s1.2188-14.391 4.7812-21.609c6-9.6094 6-21.609 4.7812-32.438zm52.828 404.44c-1.2188 1.2188-1.2188 2.3906-2.3906 2.3906-2.3906 0-3.6094-1.2188-3.6094-3.6094 0-1.2188 2.3906-2.3906 2.3906-2.3906 3.6094 0 4.7812 1.1719 3.6094 3.6094zm-1.2188-140.44v1.2188zm-6-232.78c-6 0-9.6094-6-8.3906-14.391 1.2188-6 4.7812-8.3906 10.781-8.3906s10.781 4.7812 10.781 9.6094c-1.1719 7.1719-7.1719 13.172-13.172 13.172zm-6 156c2.3906 0 4.7812 0 6 2.3906-6 12-7.2188 16.781-4.7812 27.609 2.3906 12 4.7812 25.219 8.3906 37.219-3.6094 0-4.7812-2.3906-6-4.7812-7.2188-14.391-12-28.781-15.609-44.391-2.3906-15.609-7.2188-32.391-10.781-48-1.2188-6-3.6094-13.219 0-20.391 4.7812 9.6094 8.3906 18 8.3906 27.609 0 2.3906 0 6 1.2188 8.3906 0 9.5625 3.5625 15.562 13.172 14.344zm-27.609-62.391c-1.2188-3.6094-2.3906-6-3.6094-8.3906 0 0 0-1.2188 1.2188-1.2188s2.3906 0 3.6094 1.2188c0 1.1719 0 4.7812-1.2188 8.3906zm-36-141.61c1.2188 10.781 1.2188 20.391-2.3906 30-2.3906 7.2188-7.2188 13.219-7.2188 21.609 0 3.6094-2.3906 4.7812-6 6 1.2188-9.6094 3.6094-19.219 6-27.609 0-1.2188 1.2188-1.2188 1.2188-2.3906v-2.3906c2.3906-8.3906 3.6094-15.609 6-24 1.2188-1.2188 2.3906-1.2188 2.3906-1.2188zm-21.562 195.61v-2.3906c0-6-1.2188-13.219-1.2188-19.219v-1.2188c1.2188-2.3906 1.2188-4.7812 0-6v-12c1.2188 0 1.2188 1.2188 2.3906 1.2188 12 4.7812 14.391 14.391 12 26.391-3.6094 19.219-2.3906 37.219 0 56.391 1.2188 8.3906 0 18 0 28.781-1.2188-1.2188-1.2188-3.6094-2.3906-4.7812-4.7812-21.562-8.3906-44.391-10.781-67.172zm102 94.781c0 1.2188 1.2188 1.2188 1.2188 2.3906v3.6094c-1.2188-1.2188-2.3906-1.2188-2.3906-2.3906 1.1719 0 1.1719-2.3906 1.1719-3.6094zm2.3906 7.2188c2.3906 0 3.6094 2.3906 3.6094 3.6094s-1.2188 2.3906-1.2188 3.6094l-1.2188-1.2188c-1.1719-2.3906-1.1719-3.6094-1.1719-6zm48 139.18c-3.6094-7.2188-6-14.391-2.3906-21.609 7.1719 6.0469 8.3906 13.219 2.3906 21.609zm4.7812 13.219c0 1.2188 1.2188 2.3906 1.2188 3.6094s-1.2188 3.6094-1.2188 3.6094c-2.3906 0-2.3906-2.3906-2.3906-3.6094s1.2188-2.3906 2.3906-3.6094zm-8.3906-34.781c-3.6094 0-7.2188 0-9.6094-2.3906s-3.6094-4.7812-2.3906-7.2188c2.3906-4.7812 6-9.6094 7.2188-15.609 0 0 2.3906-1.2188 3.6094-1.2188 1.2188 1.2188 4.7812 3.6094 4.7812 3.6094-3.6094 7.2188-3.6094 14.391-3.6094 22.828zm7.2188 108c0-1.2188 1.2188-1.2188 1.2188-1.2188 1.2188 0 3.6094 1.2188 3.6094 2.3906 1.2188 1.2188 1.2188 3.6094 1.2188 4.7812-2.4844-1.1719-4.875-3.5625-6.0469-5.9531zm64.781-94.828c2.3906 6 6 10.781 8.3906 15.609 8.3906 14.391 6 27.609 0 40.781-2.3906 4.7812-8.3906 7.2188-13.219 6-6-2.3906-10.781-3.6094-16.781-4.7812-2.3906 0-4.7812-3.6094-3.6094-7.2188 0-2.3906 1.2188-4.7812 3.6094-6s6-2.3906 8.3906-3.6094c9.6094-3.6094 14.391-10.781 13.219-20.391 0-4.7812 0-10.781-3.6094-15.609-6 1.2188-9.6094 9.6094-18 8.3906-4.7812-1.2188-8.3906-2.3906-10.781-7.2188-1.2188-3.6094-2.3906-7.2188-3.6094-10.781-4.7812-14.391-4.7812-14.391 3.6094-31.219 2.3906 0 4.7812 0 6 2.3906 10.781 9.6562 21.609 19.266 26.391 33.656zm-25.219-88.781c0-1.2188 1.2188-3.6094 2.3906-3.6094 7.2188 0 13.219 2.3906 16.781 8.3906v2.3906c-1.2188 1.2188-1.2188 2.3906-2.3906 3.6094-5.9531 1.2188-14.344-4.7812-16.781-10.781zm0 214.78c-1.2188 0-2.3906 0-3.6094-1.2188s-2.3906-3.6094-1.2188-6c1.2188 0 2.3906-2.3906 2.3906-1.2188 1.2188 1.2188 3.6094 2.3906 4.7812 3.6094 0.09375 1.2188 0.09375 3.6562-2.3438 4.8281zm-1.1719-234c0 1.2188-2.3906 1.2188-3.6094 2.3906-1.2188-1.2188-3.6094-1.2188-6-2.3906-3.6094-3.6094-7.2188-6-12-6s-4.7812-3.6094-4.7812-8.3906c0-2.3906 1.2188-4.7812 1.2188-6s2.3906-2.3906 3.6094-1.2188c4.7812 1.2188 6 7.2188 9.6094 9.6094s8.3906 3.6094 10.781 6c1.1719 0 1.1719 3.6094 1.1719 6zm-16.828 66c1.2188 0 2.3906 2.3906 2.3906 2.3906 0 6-4.7812 14.391-10.781 14.391-1.2188 0-2.3906-1.2188-3.6094-2.3906-1.2188-1.2188-2.3906-4.7812-2.3906-6 3.6094-4.7812 8.3906-7.1719 14.391-8.3906zm-12 91.219v2.3906l-1.2188 1.2188c0-1.2188-1.2188-1.2188-1.2188-2.3906 1.2656-1.2188 2.4375-2.4375 2.4375-1.2188zm112.83-73.219c1.2188-1.2188 1.2188-2.3906 2.3906-2.3906 1.2188 0 1.2188 1.2188 2.3906 2.3906l-1.2188 1.2188c-1.1719 0-2.3906-1.2188-3.5625-1.2188zm33.609 36c-2.3906 1.2188-7.2188-1.2188-7.2188-3.6094 0-1.2188 1.2188-2.3906 2.3906-2.3906 3.6094-1.2188 6 0 7.2188 3.6094-1.2188 1.2188-1.2188 2.3906-2.3906 2.3906zm2.3906 140.39-1.2188 1.2188c-1.2188 0-2.3906 0-3.6094-1.2188s-1.2188-2.3906-1.2188-3.6094 2.3906-1.2188 3.6094 0c1.2188 0.046875 1.2188 1.2188 2.4375 3.6094zm2.3906 19.219c2.3906-6 7.2188-9.6094 13.219-8.3906 1.2188 0 2.3906 2.3906 2.3906 2.3906-2.3906 6-7.2188 8.3906-12 10.781-1.2188 0-1.2188-1.2188-2.3906-1.2188 0 0.046875-1.2188-2.3438-1.2188-3.5625zm36-127.22 1.2188-1.2188 1.2188 1.2188c0 1.2188 0 1.2188-1.2188 2.3906 0 0.046876 0-1.1719-1.2188-2.3906zm37.219 183.61c-1.2188 0-2.3906 0-3.6094-1.2188s-2.3906-2.3906-2.3906-3.6094c3.6094-1.2188 8.3906-1.2188 12 2.3906-2.4375 1.2656-4.8281 1.2656-6 2.4375zm-16.828-10.781v-1.2188l1.2188-1.2188c3.6094 1.2188 7.2188 3.6094 8.3906 7.2188-3.6094 1.2188-7.2188-1.1719-9.6094-4.7812zm26.391-19.219c1.2188 0 2.3906-1.2188 3.6094-1.2188s1.2188 2.3906 1.2188 3.6094c0 2.3906-1.2188 2.3906-3.6094 1.2188 0-1.2188 0-2.3906-1.2188-3.6094zm69.609 43.219h-2.3906c-2.3906-1.2188-3.6094-2.3906-4.7812-2.3906 1.2188-1.2188 3.6094-2.3906 4.7812-2.3906h2.3906c1.2188 1.2188 2.3906 1.2188 3.6094 2.3906-2.3906 0-2.3906 1.1719-3.6094 2.3906zm-10.781-27.609c-4.7812 4.7812-12 6-16.781 7.2188-3.6094 0 0 0-2.3906-1.2188-1.2188-1.2188-1.2188-2.3906-1.2188-3.6094 3.6094-6 8.3906-10.781 14.391-12 2.3906 0 4.7812 0 6 2.3906 2.3906 2.4375 2.3906 6 0 7.2188zm-39.609 18-1.2188 1.2188c-2.3906 0-6-1.2188-8.3906-2.3906 0 0-1.2188-1.2188-1.2188-2.3906 0 0 0-1.2188 1.2188-1.2188 3.6094-1.2188 7.2188-1.2188 9.6094 1.2188zm123.61-27.609c0-2.3906 2.3906-3.6094 4.7812-2.3906 1.2188 0 1.2188 2.3906 2.3906 3.6094-1.2188 2.3906-2.3906 3.6094-4.7812 2.3906-2.3906-1.2188-3.6094-2.3906-2.3906-3.6094zm78 19.219c2.3906 0 4.7812 1.2188 4.7812 3.6094 0 1.2188-1.2188 2.3906-2.3906 3.6094-2.3906 1.2188-4.7812 0-6-1.2188 0-3.6094 2.3906-4.8281 3.6094-6zm115.17-37.219c0-1.2188 0-2.3906 1.2188-3.6094 2.3906-3.6094 7.2188-3.6094 10.781-4.7812-1.2188 3.6094-4.7812 7.2188-7.2188 9.6094-2.3438 1.1719-4.7812 1.1719-4.7812-1.2188zm13.219-9.6094c1.2188-1.2188 2.3906-3.6094 3.6094-4.7812 1.2188-1.2188 2.3906-1.2188 3.6094 0 0 1.2188 0 3.6094-1.2188 3.6094-2.3906 1.1719-3.6094 1.1719-6 1.1719zm26.391-21.562c1.2188 3.6094 0 7.2188-2.3906 9.6094-1.2188 1.2188-2.3906 1.2188-3.6094 1.2188 0-1.2188-1.2188-2.3906-1.2188-3.6094 1.2188-3.6562 3.6094-6.0469 7.2188-7.2188zm1.2188-1.2188 1.2188-1.2188c-0.046876 0-0.046876 1.2188-1.2188 1.2188zm139.18-90c0-1.2188 0-1.2188 1.2188-2.3906l4.7812-4.7812c-2.3906 2.3906-3.5625 4.7812-6 7.1719zm33.609-43.219c-1.2188-6 4.7812-12-1.2188-18-4.7812 8.3906-8.3906 18-16.781 24 2.3906 2.3906 4.7812 4.7812 6 7.2188 0 1.2188 1.2188 1.2188 1.2188 2.3906-2.3906 3.6094-4.7812 7.2188-7.2188 9.6094 0 0-1.2188 0-1.2188-1.2188-6-6-8.3906 0-12 3.6094-1.2188-1.2188-3.6094-2.3906-4.7812-3.6094-1.2188-1.2188-2.3906-1.2188-4.7812-2.3906-7.2188 6-13.219 14.391-22.781 18-4.7812 2.3906-8.3906 8.3906-12 13.219-7.2188 10.781-14.391 20.391-24 30-3.6094 3.6094-8.3906 7.2188-10.781 12-8.3906 15.609-21.609 26.391-36 37.219-4.7812 3.6094-7.2188 9.6094-13.219 10.781 0 0-1.2188 0-2.3906-1.2188l-1.2188-1.2188c1.2188-4.7812 4.7812-8.3906 8.3906-10.781 6-4.7812 12-8.3906 14.391-16.781 1.2188-6 8.3906-8.3906 13.219-10.781 9.6094-4.7812 9.6094-7.2188 0-16.781-7.2188 4.7812-14.391 9.6094-22.781 13.219-4.7812 1.2188-6 4.7812-2.3906 10.781 1.2188 1.2188 2.3906 3.6094 3.6094 4.7812-1.2188 1.2188-1.2188 3.6094-2.3906 3.6094-6 2.3906-10.781 3.6094-15.609 6-8.3906-4.7812-2.3906-13.219-7.2188-18-4.7812-2.3906-8.3906 2.3906-13.219 2.3906-9.6094-1.2188-18 2.3906-24 8.3906-7.2188 6-15.609 8.3906-22.781 13.219-2.3906 1.2188-2.3906 6 0 7.2188 2.3906 2.3906 7.2188 1.2188 9.6094 6-7.2188 7.2188-19.219 4.7812-22.781 13.219-6 0-6-3.6094-8.3906-6-4.7812-3.6094-12-3.6094-15.609 1.2188-1.2188 1.2188-3.6094 3.6094-3.6094 4.7812-3.6094 15.609-16.781 16.781-27.609 22.781-3.6094-3.6094-1.2188-4.7812 0-6 8.3906-7.2188 19.219-12 21.609-24 7.2188-6 14.391-13.219 24-14.391 8.3906-1.2188 10.781-6 12-14.391 0-3.6094 1.2188-6 0-9.6094-1.2188-6 1.2188-12 6-15.609 2.3906-2.3906 4.7812-6 6-9.6094 0-1.2188 0-3.6094-1.2188-3.6094-1.2188-1.2188-2.3906-1.2188-3.6094-2.3906-3.6094 0-7.2188 1.2188-9.6094 4.7812-1.2188 2.3906-2.3906 6-3.6094 8.3906-3.6094 10.781-7.2188 10.781-16.781 4.7812-1.2188-1.2188-2.3906-2.3906-3.6094-2.3906 0 0-1.2188 0-2.3906-1.2188-12 4.7812-24 10.781-37.219 14.391-6 2.3906-12 1.2188-18 3.6094-2.3906 1.2188-4.7812 3.6094-3.6094 7.2188 1.2188 4.7812 4.7812 7.2188 3.6094 13.219-6-1.2188-7.2188-7.2188-12-9.6094-3.6094-2.3906-8.3906-3.6094-12-7.2188-1.2188-1.2188-2.3906-3.6094-2.3906-4.7812-9.6094 6-21.609 6-32.391 7.2188-7.2188 1.2188-10.781 3.6094-14.391 8.3906-4.7812-2.3906-3.6094-8.3906-7.2188-10.781-3.6094-1.2188-7.2188-1.2188-10.781-2.3906-4.7812-2.3906-9.6094-4.7812-14.391-7.2188-6 0-6 4.7812-9.6094 8.3906-6 4.7812-12 8.3906-19.219 10.781-3.6094 1.2188-3.6094 4.7812-1.2188 9.6094 1.2188 2.3906 2.3906 3.6094 4.7812 6-7.2188 2.3906-13.219 2.3906-18-4.7812-2.3906-4.7812-6-6-10.781-6-6 0-9.6094-4.7812-10.781-9.6094 0-2.3906-1.2188-6 1.2188-8.3906 6-3.6094 12-8.3906 14.391-14.391 6 1.2188 6 6 7.2188 9.6094 3.6094 7.2188 7.2188 8.3906 14.391 6 2.3906-1.2188 6-2.3906 8.3906-3.6094s3.6094-4.7812 1.2188-6c-10.781-6-16.781-19.219-30-21.609-1.2188 0-2.3906-2.3906-1.2188-3.6094 0-1.2188 2.3906-2.3906 3.6094-2.3906 13.219 4.7812 26.391 2.3906 39.609 2.3906-3.6094-7.2188-7.2188-14.391-9.6094-21.609-1.2188-2.3906-1.2188-4.7812-1.2188-6 0-2.3906 2.3906-6 4.7812-7.2188s4.7812-1.2188 6 1.2188c2.3906 3.6094 4.7812 6 8.3906 10.781 2.3906-4.7812 3.6094-8.3906 4.7812-12 1.2188-2.3906-1.2188-4.7812-3.6094-4.7812-6-1.2188-12-1.2188-18-1.2188-2.3906 0-3.6094 1.2188-6 2.3906-2.3906 2.3906-4.7812 6-9.6094 4.7812-4.7812-2.3906-9.6094-4.7812-12-9.6094-1.2188-2.3906 0-3.6094 0-6 3.6094-9.6094 3.6094-9.6094-6-9.6094-7.2188 0-13.219 0-19.219-4.7812-1.2188-1.2188-3.6094-3.6094-2.3906-6s4.7812-4.7812 7.2188-3.6094c2.3906 1.2188 4.7812 2.3906 8.3906 3.6094h3.6094c1.2188 0 1.2188-1.2188 1.2188-1.2188v-2.3906c-4.7812-4.7812-10.781-7.2188-16.781-8.3906-3.6094-1.2188-8.3906 2.3906-8.3906 6 0 12-2.3906 24 0 36 2.3906 1.2188 4.7812 3.6094 4.7812 7.2188 0 8.3906 1.2188 14.391 6 20.391 2.3906 2.3906-1.2188 6-4.7812 6-12-1.2188-24-2.3906-34.781-3.6094-3.6094-6 1.2188-10.781 1.2188-15.609 0-4.7812 0-9.6094 1.2188-13.219 3.6094-9.6094 3.6094-20.391 3.6094-31.219 0-3.6094-1.2188-8.3906 1.2188-10.781 4.7812-9.6094 0-16.781-4.7812-25.219-6-10.781-12-22.781-20.391-32.391s-18-18-31.219-20.391c-4.7812-1.2188-8.3906-2.3906-13.219-4.7812-3.6094-1.2188-4.7812-4.7812-3.6094-9.6094 1.2188-2.3906 2.3906-4.7812 1.2188-8.3906l-1.2188-1.2188h-2.3906c-1.2188 2.3906-2.3906 3.6094-2.3906 6-1.2188 3.6094-4.7812 7.2188-8.3906 6-6-1.2188-13.219 1.2188-19.219-4.7812-1.2188-1.2188-3.6094-1.2188-3.6094-1.2188-4.7812 7.2188-13.219 2.3906-18 6-6 3.6094-10.781 7.2188-16.781 12-14.391-15.609-30-28.781-49.219-37.219 1.2188-6 7.2188-6 9.6094-9.6094 1.2188-1.2188 0-4.7812 0-6-1.2188-2.3906-3.6094-3.6094-6-2.3906-6 6-13.219 9.6094-21.609 8.3906-1.2188 0-3.6094 0-3.6094-1.2188-2.3906-2.3906-3.6094-4.7812-3.6094-7.2188 0-2.3906 2.3906-3.6094 4.7812-3.6094 8.3906 2.3906 14.391-1.2188 18-8.3906 2.3906-4.7812 7.2188-6 12-3.6094s9.6094 3.6094 15.609 1.2188c1.2188 0 2.3906-2.3906 2.3906-3.6094s-1.2188-2.3906-2.3906-2.3906c-6-1.2188-12-2.3906-15.609-8.3906 0-1.2188 0-3.6094 1.2188-3.6094 3.6094-3.6094 8.3906 0 13.219 0 3.6094 0 7.2188-3.6094 7.2188-7.2188s-2.3906-7.2188-6-8.3906c-2.3906 0-6 0-8.3906-1.2188-2.3906 0-3.6094-2.3906-2.3906-4.7812 0-1.2188 1.2188-1.2188 1.2188-2.3906 4.7812-12 4.7812-12-8.3906-15.609-4.7812-1.2188-6-3.6094-4.7812-9.6094 0-2.3906 2.3906-4.7812 0-6-10.781-4.7812-12-16.781-19.219-24l-3.6094-3.6094c-2.3906-2.3906-8.3906-2.3906-9.6094 0-3.6094 6-8.3906 10.781-9.6094 18-1.2188 4.7812-3.6094 6-8.3906 4.7812-1.2188 0-3.6094 2.3906-4.7812 4.7812-1.2188 3.6094-2.3906 8.3906-6 12-3.6094 2.3906-4.7812 6-4.7812 9.6094 0 8.3906-1.2188 16.781-1.2188 25.219 0 2.3906-1.2188 4.7812-3.6094 4.7812-3.6094 0-6-1.2188-7.2188-3.6094-2.3906-2.3906-1.2188-3.6094 0-6s3.6094-4.7812 4.7812-7.2188c1.2188-2.3906-2.3906-7.2188-4.7812-6-4.7812 1.2188-8.3906 2.3906-13.219 3.6094-6 2.3906-8.3906 7.2188-3.6094 12 8.3906 10.781 6 20.391 1.2188 31.219-1.2188 2.3906-3.6094 4.7812-4.7812 7.2188-6-2.3906-7.2188-7.2188-10.781-10.781-3.6094-3.6094-4.7812-7.2188-8.3906-10.781-2.3906-3.6094-3.6094-8.3906-1.2188-13.219 4.7812-8.3906 8.3906-16.781 2.3906-25.219 1.0781-1.0312 1.0781-3.4688 1.0781-4.6406 2.3906-14.391-3.6094-26.391-13.219-36 1.2188-2.3906 2.3906-3.6094 3.6094-3.6094 9.6094 0 16.781-4.7812 21.609-14.391 3.6094-8.3906 12-14.391 14.391-22.781 3.6094-8.3906 3.6094-18 6-26.391 4.7812-18 8.3906-34.781 9.6094-52.781 1.2188-14.391-1.2188-27.609-7.2188-39.609-3.6094-6-6-12-8.3906-18-2.3906-4.7812-6-4.7812-10.781-4.7812 3.6094-4.7812 6-10.781 13.219-13.219 2.3906 8.3906 3.6094 16.781 12 22.781 6 3.6094 9.6094 3.6094 13.219-1.2188 9.6094-14.391 15.609-30 15.609-48v-69.609c0-4.7812 0-9.6094-3.6094-13.219-7.2188-6-6-14.391-6-22.781-3.6094-1.2188-7.2188 0-9.6094 2.3906-4.7812 3.6094-10.781 6-14.391-1.2188-9.6094-2.3906-18-2.3906-24 4.7812-4.7812 6-10.781 7.2188-18 4.7812-4.7812-1.2188-8.3906 2.3906-10.781 6-1.2188 2.3906-2.3906 3.6094-2.3906 6-10.781 26.391-21.609 52.781-31.219 79.219-4.7812 10.781-12 20.391-14.391 32.391-2.3906-1.2188-4.7812-3.6094-3.6094-7.2188 1.2188-12 3.6094-24 6-36 1.2188-4.7812 3.6094-8.3906 6-12 3.6094-3.6094 4.7812-7.2188 2.3906-12-1.2188-2.3906 0-6 2.3906-8.3906 4.7812-6 7.2188-13.219 9.6094-20.391 3.6094-14.391 12-25.219 19.219-37.219 1.2188-2.3906 2.3906-3.6094 4.7812-4.7812 16.781-12 27.609-27.609 36-45.609 4.7812-10.781 12-21.609 16.781-31.219 3.6094-7.2188 7.2188-14.391 7.2188-21.609 28.781-28.781 61.219-54 96-75.609 2.3906 0 4.7812 0 6-1.2188 7.2188-3.6094 13.219-6 20.391-10.781 2.3906-1.2188 6-3.6094 6-6 45.609-24 96-40.781 148.78-50.391h1.2188c6-1.2188 12-2.3906 18-2.3906 3.6094 0 6-1.2188 9.6094-1.2188 6-1.2188 12-1.2188 18-2.3906 4.7812 0 10.781-1.2188 15.609-1.2188h33.562c28.781 0 57.609 2.3906 85.219 7.2188v1.2188c-4.7812 2.3906-9.6094 2.3906-13.219 8.3906 1.2188 1.2188 2.3906 3.6094 3.6094 6 2.3906 3.6094 3.6094 6 1.2188 9.6094-1.2188 2.3906-2.3906 6 0 7.2188 13.219 9.6094 24 20.391 39.609 24 6 1.2188 12 7.2188 16.781 9.6094 6 2.3906 13.219 2.3906 19.219 3.6094 4.7812 1.2188 8.3906 3.6094 12 4.7812 3.6094 1.2188 7.2188 3.6094 10.781 3.6094 10.781 0 20.391 2.3906 30 6 2.3906 1.2188 8.3906-3.6094 7.2188-6 0-2.3906-1.2188-6-2.3906-8.3906-3.6094-6-1.2188-12 0-18-8.3906-6-16.781-12-25.219-19.219-2.3906-1.2188-4.7812-3.6094-2.3906-7.2188 8.3906 3.6094 16.781 6 24 9.6094 12 6 24 13.219 33.609 24 3.6094 3.6094 6 2.3906 9.6094 1.2188 1.2188-1.2188 3.6094 0 6 0 1.2188 0 1.2188 1.2188 2.3906 1.2188 1.2188 1.2188 1.2188 3.6094 0 3.6094-2.3906 2.3906-4.7812 3.6094-7.2188 4.7812-1.2188 1.2188-3.6094 3.6094-1.2188 4.7812 4.7812 3.6094 7.2188 7.2188 8.3906 13.219 3.6094 13.219 12 22.781 19.219 32.391 13.219 15.609 26.391 31.219 38.391 46.781 9.6094 12 21.609 21.609 36 30 4.7812-1.2188 4.7812-6 7.2188-8.3906 2.3906-3.6094 8.3906-4.7812 7.2188-9.6094-1.2188-3.6094-3.6094-8.3906-7.2188-12-2.3906-3.6094-6-7.2188-8.3906-10.781-1.2188-2.3906-2.3906-4.7812 0-6 1.2188-1.2188 4.7812-2.3906 6-1.2188 8.3906 3.6094 16.781 8.3906 16.781 20.391 0 3.6094 3.6094 8.3906 6 1.2188 0-1.2188 2.3906-1.2188 3.6094-1.2188 3.6094 2.3906 6 4.7812 7.2188 8.3906-1.2188 4.7812-7.2188 1.2188-9.6094 6 7.2188 19.219 15.609 37.219 28.781 52.781 1.2188 1.2188 2.3906 3.6094 3.6094 6 2.3906 4.7812 1.2188 8.3906-2.3906 10.781 4.7812 3.6094 8.3906 7.2188 13.219 12 7.2188-6 9.6094-14.391 10.781-22.781-1.2188 38.391 13.219 73.219 28.781 105.61 12 24 13.219 31.219 12 57.609-7.2188-10.781-9.6094-21.609-12-32.391-2.3906-15.609-7.2188-31.219-18-43.219-2.3906-2.3906-4.7812-6-4.7812-9.6094 0-2.3906 0-4.7812-2.3906-6-12-9.6094-10.781-24-12-37.219 0-1.2188-1.2188-2.3906-2.3906-6-2.3906 15.609-2.3906 28.781-1.2188 42 1.2188 7.2188 7.2188 10.781 12 14.391-1.2188 1.2188-2.3906 3.6094-3.6094 3.6094-8.3906 3.6094-9.6094 8.3906-6 16.781 3.6094 10.781 7.2188 21.609 10.781 32.391 2.3906 6 2.3906 6 12 4.7812 6-1.2188 8.3906 0 8.3906 7.2188 0 9.6094 3.6094 15.609 9.6094 21.609 12 1.2188 12 10.781 14.391 19.219v2.3906c0 3.6094 0 7.2188-3.6094 9.6094-3.6094 2.3906-7.2188 1.2188-12-3.6094-4.7812-4.7812-8.3906-10.781-12-16.781-2.3906-2.3906-4.7812-3.6094-7.2188-1.2188-2.3906 1.2188-4.7812 2.3906-6 1.2188-8.3906-6-12 0-16.781 4.7812-6 7.2188-8.3906 15.609-9.6094 25.219-2.3906 18-1.2188 36-4.7812 54 0 7.3125 4.7812 10.922 4.7812 15.703 3.6094 18 12 33.609 25.219 46.781-1.2188 7.2188-2.3906 15.609-2.3906 22.781-1.2188 13.219-2.3906 19.219 15.609 20.391 1.2188 0 2.3906 1.2188 3.6094 1.2188 2.3906 1.2188 2.3906 3.6094 1.2188 6-2.3906 4.7812-4.7812 8.3906-9.6094 8.3906-8.3906 1.2188-14.391 3.6094-13.219 14.391 0 2.3906-3.6094 4.7812-4.7812 7.2188-8.3906 9.6094-15.609 19.219-18 32.391-1.2188 8.3906-6 15.609-9.6094 22.781-6 13.219-8.3906 26.391-6 42 2.3906 9.6094 0 19.219 0 28.781 0 4.7812 2.3906 7.2188 6 7.2188 7.2188 1.2188 13.219 1.2188 19.219-3.6094 7.2188-4.7812 13.219-9.6094 19.219-15.609 2.3906-2.3906 6-4.7812 8.3906-6 1.2188 0 2.3906 1.2188 3.6094 1.2188v2.3906c-10.781 9.6094-16.781 22.781-21.609 36-1.2656 4.875-4.875 10.875-8.4844 15.656zm-277.18 106.83c0-1.2188 1.2188-2.3906 2.3906-3.6094 2.3906-1.2188 4.7812 0 4.7812 1.2188 1.2188 2.3906 1.2188 3.6094 0 6 0 1.2188-1.2188 1.2188-2.3906 2.3906-2.3906 0-4.7812-2.3906-4.7812-6zm-549.61-525.61c0 3.6094-1.2188 6-3.6094 7.2188h-3.6094c-1.2188-1.2188-1.2188-2.3906 0-3.6094 1.2188-3.6094 3.6094-3.6094 7.2188-3.6094zm0 0c0-2.3906 2.3906-3.6094 3.6094-3.6094 0 1.2188-1.2188 3.6094-3.6094 3.6094zm18-19.219c0-3.6094 0-7.2188 1.2188-9.6094 8.3906-9.6094 12-21.609 18-33.609 2.3906-3.6094 6-7.2188 8.3906-10.781 3.5625 20.438-4.8281 34.828-27.609 54zm28.781-72s1.2188 0 0 0c1.2188 1.2188 1.2188 1.2188 1.2188 2.3906 0 1.2188-1.2188 1.2188-1.2188 1.2188zm852 205.22c-1.2188 2.3906-1.2188 2.3906-2.3906 0 0 0 0-1.2188 1.2188-2.3906h1.2188c-0.046875 0 1.1719 1.1719-0.046875 2.3906zm-10.781 60c-1.2188 2.3906-1.2188 6-1.2188 8.3906 0 7.2188-6 8.3906-10.781 9.6094-3.6094-6 1.2188-19.219-13.219-15.609 3.6094-10.781 12-7.2188 16.781-10.781 2.3906-2.3906 6-3.6094 8.3906-1.2188 3.6562 2.3906 1.2188 6 0.046875 9.6094zm-8.3906-222c-1.2188 0-2.3906 1.2188-3.6094 1.2188s-1.2188-2.3906-1.2188-3.6094c0-2.3906 1.2188-2.3906 3.6094-1.2188 0 1.2188 1.2188 2.3906 1.2188 3.6094zm22.781 302.39c-1.2188 2.3906-3.6094 3.6094-4.7812 2.3906-2.3906-1.2188-2.3906-3.6094-1.2188-6 6-13.219 10.781-26.391 16.781-39.609-2.3906 13.219-4.7812 25.219-8.3906 38.391-1.1719 1.2188-1.1719 3.6562-2.3906 4.8281z" fill="#012f69"/>
</svg>
