<?xml version="1.0" encoding="UTF-8"?>
<svg width="1200pt" height="1200pt" version="1.1" viewBox="0 0 1200 1200" xmlns="http://www.w3.org/2000/svg">
 <path d="m556.34 889.65c-48.383-3.6016-95.199-22.16-132.62-53.121-24.047-19.902-53.09-33.023-75.902-54.449-66.098-58.258-45.246-156.59-26.879-232.13 29.473-124.61 112.85-184.69 238.91-189.3 27.727 3.1055 98.945-7.5508 95.648 34.734-1.5039 23.09-25.426 20.434-42.047 16.816-18.449-2.5742-37.121-3.6641-55.727-4.0781-61.488-1.0703-122.95 21.938-169.15 62.414-55.633 62.398-46.609 155.57-39.246 232.93 21.426 60.062 86.449 92.93 142.96 112.67 92.434 24.383 214.26 46.207 279.92-42.062 42.238-58.258 50.031-133.33 48.945-203.34-4.6094-56.207-30.77-112.67-69.184-153.55-26.289-17.055-58.895-20.145-88.258-29.762-10.098-2.9102-11.793-17.375-5.4727-24.688 9.8867-9.6172 45.648 9.5352 59.68 10.961 52.895 9.5195 87.406 52.449 113.41 96.289 52.273 90.863 35.375 210.64-16.734 297.89-58.383 78.176-160.02 129.94-258.26 121.76z" fill="#f4de3d"/>
 <path d="m649.89 224.46c-1.8398-17.922 0.046875-35.871 0.35156-53.84 4.6094-22.398-10.832-74.031 19.586-79.199 32.062 1.1523 13.266 80.383 16.398 103.68-1.5859 16.176 2.2578 45.617-19.441 48.512-9.6953 0-16.352-10.352-16.91-19.168z" fill="#f4de3d"/>
 <path d="m852.03 341.21c-32.191-53.328 104.86-121.3 143.94-138.48 24.449-6.8789 30.512 35.762 10.078 43.984-9.6484 4.4336-19.168 9.0703-28.703 13.711-28.238 13.504-54.785 30.754-77.008 52.91-13.922 10.383-28.238 46.383-48.305 27.871z" fill="#f4de3d"/>
 <path d="m1033.6 564.85c-25.184-4.6094-51.105-5.2656-76.078-10.465-15.137-4.3047-18.305-25.07-10.383-37.055 16.688-19.586 67.762-0.94531 91.922-0.55859 23.266 5.3438 19.922 50.574-5.457 48.078z" fill="#f4de3d"/>
 <path d="m992 829.02c-18.145-16.305-36.176-32.785-55.312-47.922-18.719-11.137-39.762-37.762-16.703-55.586 22.754-10.191 72.16 48.848 92.078 62.832 18.367 13.742 4.0156 57.586-20.062 40.688z" fill="#f4de3d"/>
 <path d="m786.86 1015.3c-12.078-29.105-57.824-80.258-25.535-107.47 21.586-14.32 29.406 16.77 36.289 31.375 7.8555 15.137 15.793 30.207 24.223 45.039 12.223 19.457-18.641 53.969-34.977 31.039z" fill="#f4de3d"/>
 <path d="m473.7 1107.1c-30.527-18.512 2.7344-67.984 6.7031-94.977 10.48-23.648 11.137-59.215 32.719-75.008 44.305 1.2812 9.7266 63.023 4.1758 86.496-6.207 18.559-11.855 37.266-17.344 56.062-3.0078 12.832-8.5273 34.688-26.238 27.426z" fill="#f4de3d"/>
 <path d="m155.68 878.72c-14.688-9.6953-13.742-36.113 2.3828-43.871 9.6172-4.6406 19.199-9.3438 27.52-13.406 25.727-12.496 50.734-26.32 75.344-40.895 8.4805-5.0234 16.816-10.367 26.129-13.742 21.809-6.3359 29.023 29.008 14.273 40.465-19.09 16.367-42.609 26.719-64.609 38.609-18.719 6.4961-65.52 41.039-81.023 32.848z" fill="#f4de3d"/>
 <path d="m257.65 471.62c-32.93-17.008-63.52-38.641-99.426-49.809-21.504-8.1602-14.977-53.328 10.574-46.145 28.594 13.375 123.62 43.199 109.36 83.871-2.9102 8.4336-11.648 15.824-20.512 12.098z" fill="#f4de3d"/>
 <path d="m431.54 289.25c-30.367-18.672-57.711-115.46-71.152-151.44-10.031-23.312 20.145-49.68 32.305-19.762 3.5195 10.945 7.1367 21.855 10.93 32.703 7.8398 24.641 18.207 48.207 30.352 71.023 10.352 18.688 33.809 64.191-2.4141 67.457z" fill="#f4de3d"/>
 <path d="m481.01 550.73c0-9.7617 5.793-22.559 17.152-22.559s17.152 12.816 17.152 22.559-5.793 22.559-17.152 22.559-17.152-12.816-17.152-22.559z" fill="#f4de3d"/>
 <path d="m590.86 514.13c0-9.7617 5.793-22.559 17.152-22.559s17.152 12.801 17.152 22.559c0 9.7617-5.793 22.559-17.152 22.559s-17.152-12.801-17.152-22.559z" fill="#f4de3d"/>
 <path d="m561.76 647.21c-26.992-2.2383-110.61-2.207-104.98-41.824 0.83203-8.8008 7.1055-19.391 16.961-19.23 35.809 4.7188 71.008 16.512 107.7 13.426 53.762-3.6953 68.32-88.367 93.938-60.977 19.375 27.902-17.406 56.145-33.504 76.512-21.344 20.863-49.711 35.055-80.113 32.098z" fill="#f4de3d"/>
</svg>
