<?xml version="1.0" encoding="UTF-8"?>
<svg id="Layer_1" xmlns="http://www.w3.org/2000/svg" version="1.1" viewBox="0 0 1653.69 512">
  <!-- Generator: Adobe Illustrator 30.0.0, SVG Export Plug-In . SVG Version: 2.1.1 Build 123)  -->
  <defs>
    <style>
      .st0, .st1 {
        fill: #00629a;
      }

      .st2 {
        display: none;
        fill: #fff;
        stroke: #00629a;
        stroke-miterlimit: 10;
        stroke-width: 7.76px;
      }

      .st1 {
        font-family: BenguiatITCbyBT-BookCondensed, 'ITC Benguiat Book Condensed BT';
        font-size: 470.1px;
      }
    </style>
  </defs>
  <rect class="st2" x="7.68" y="7.68" width="496.64" height="496.64" rx="27" ry="27"/>
  <path class="st0" d="M353.46,375.53l-40.37,86.32c-1.85,3.17-8.85,16.03-11.56,16.87-3.63,1.13-23.58,1.43-27.01.11-2.86-1.11-9.13-10.37-10.64-12.78-12.24-19.71-20.57-40.32-31.51-60.98-31.4-59.33-66.07-148.82-66.07-148.82l-17.48-39.02s-6.06-11.58-18.31-38.48c-15.35-33.7-37.48-36.7-37.48-36.7,0,0,17.28-24.4-1.02-68.46-10.77-25.96-46.34-41.3-45.73-41.3,30.49,0,111.68,21.88,135.19,36.59,12.84,8.04,55.91,31.51,42.7,75.22,0,0-21.35,15.25-2.49,74.56l10.91,42.52,20.9,53.2c12.48,23.27,15.05,32.55,28.77,54.76,1.21,1.95,3.73,6.25,5.21,7.67.64.61.54.69,1.67.48,18.04-31.58,4.46-9.61,21.4-38.07,5.08-8.52,42.08-82.95,42.08-82.95l4.23-9.88c5.44-12.72,4.57-27.26-2.37-39.23l-13.31-22.96c-3.82,3.65-6.88,8.23-9.08,13.09-2.2,4.86-2.45,9.93-4.7,14.44-2.58-12.18-3.56-24.47-1.42-37.22,1.98-11.77,6.21-24.77,13.1-34.54-.58-3.82-58.24,23.51-62.59,24.52,5.72-9.48,13.74-16.32,21.97-23.2l48.8-30.9-43.28,6.34c-.55-.14-.05-.96.24-1.22,5.92-5.21,25.58-15.6,33.33-19.74,11.69-6.25,24-10.95,35.69-17.14,10.35-5.48,27.03-18.94,37.64-18.34,4.14.23,8.65,3.01,11.99,2.65,2.2-.23,24-11.59,25.39-13.25,4.24-5.08,3.46-9.98,1.67-15.43,17.49-4.98,35.02,6.34,39.44,23.72-19.63,4.15-36.11,17.23-47.81,34.67l22.02-16.43,14.96-8.84c2.64-.43,7.01,23.12,6.02,26.51-19.1-.04-38.56,9.58-50.17,26.85-3.37,5-5.4,10.79-8.95,15.68-7.27,10.02-21.13,14.77-29.01,4.72-12.34,18.25,14.84,60.59,14.84,79.99,0,22.37-19.7,49.79-25.53,72.38M423.05,75.54c-2.48-1.04-7.11-2.79-9.7-1.49-2.21,1.11-13.95,13.79-13.76,15.61,9.94-.95,18.32-3.97,23.46-14.12h0ZM477.84,40.46c-1.67-1.11-6.72-2.15-8.4-.81l-6.96,9.15,15.34-8.34h.02Z"/>
  <text class="st1" transform="translate(444.66 385.51)"><tspan x="0" y="0">aughn</tspan></text>
</svg>